<svg width="34" height="34" viewBox="0 0 34 34" fill="none" xmlns="http://www.w3.org/2000/svg">
<defs>
<linearGradient id="paint0_linear_107_32" x1="3.76701" y1="15.2299" x2="29.567" y2="15.2299" gradientUnits="userSpaceOnUse">
<stop offset="0.05" stop-color="white"/>
<stop offset="0.57" stop-color="#F2F2F2"/>
<stop offset="0.6" stop-color="#F1F1F1"/>
<stop offset="1" stop-color="#E5E5E5"/>
</linearGradient>
<linearGradient id="paint1_linear_107_32" x1="22.9529" y1="22.9099" x2="26.3262" y2="13.6465" gradientUnits="userSpaceOnUse">
<stop offset="0.42" stop-opacity="0"/>
<stop offset="1"/>
</linearGradient>
<linearGradient id="paint2_linear_107_32" x1="17.4101" y1="20.3133" x2="22.0167" y2="7.66326" gradientUnits="userSpaceOnUse">
<stop offset="0.07" stop-opacity="0"/>
<stop offset="1"/>
</linearGradient>
<linearGradient id="paint3_linear_107_32" x1="8.75327" y1="23.2066" x2="8.75327" y2="13.23" gradientUnits="userSpaceOnUse">
<stop offset="0.49" stop-opacity="0"/>
<stop offset="1"/>
</linearGradient>
<linearGradient id="paint4_linear_107_32" x1="10.7567" y1="16.09" x2="12.84" y2="10.3667" gradientUnits="userSpaceOnUse">
<stop offset="0.21" stop-opacity="0"/>
<stop offset="1"/>
</linearGradient>
</defs>
<path d="M33.3333 16.6667C33.3333 7.46192 25.8714 0 16.6667 0C7.46192 0 0 7.46192 0 16.6667C0 25.8714 7.46192 33.3333 16.6667 33.3333C25.8714 33.3333 33.3333 25.8714 33.3333 16.6667Z" fill="currentColor"/>
<path d="M26.437 13.6866C26.2803 10.1099 23.3303 7.25659 19.7137 7.25659C17.117 7.25659 14.8637 8.72993 13.7403 10.8833C13.2137 10.4466 12.537 10.1833 11.797 10.1833C10.1137 10.1833 8.75034 11.5466 8.75034 13.2299C5.997 13.2299 3.76367 15.4633 3.76367 18.2166C3.76367 20.9699 5.997 23.2033 8.75034 23.2033H24.637C27.3603 23.2033 29.5637 20.9966 29.5637 18.2766C29.5637 16.1899 28.2637 14.4066 26.4303 13.6866H26.437Z" fill="url(#paint0_linear_107_32)"/>
<g opacity="0.3">
<path opacity="0.25" d="M29.5662 18.2765C29.5662 20.9965 27.3596 23.2032 24.6396 23.2032C21.9196 23.2032 19.7129 20.9965 19.7129 18.2765C19.7129 15.5565 21.9196 13.3499 24.6396 13.3499C27.3596 13.3499 29.5662 15.5565 29.5662 18.2765Z" fill="url(#paint1_linear_107_32)"/>
<path opacity="0.3" d="M26.4434 13.9866C26.4434 17.7033 23.4301 20.7166 19.7134 20.7166C15.9967 20.7166 12.9834 17.7033 12.9834 13.9866C12.9834 10.2699 15.9967 7.25659 19.7134 7.25659C23.4301 7.25659 26.4434 10.2699 26.4434 13.9866Z" fill="url(#paint2_linear_107_32)"/>
<path opacity="0.35" d="M13.7399 18.2166C13.7399 20.97 11.5066 23.2033 8.75327 23.2033C5.99993 23.2033 3.7666 20.97 3.7666 18.2166C3.7666 15.4633 5.99993 13.23 8.75327 13.23C11.5066 13.23 13.7399 15.4633 13.7399 18.2166Z" fill="url(#paint3_linear_107_32)"/>
<path opacity="0.5" d="M14.8433 13.23C14.8433 14.9134 13.48 16.2767 11.7967 16.2767C10.1133 16.2767 8.75 14.9134 8.75 13.23C8.75 11.5467 10.1133 10.1833 11.7967 10.1833C13.48 10.1833 14.8433 11.5467 14.8433 13.23Z" fill="url(#paint4_linear_107_32)"/>
</g>
<path d="M18.8596 9.85669H14.4762C13.4711 9.85669 12.6562 10.6715 12.6562 11.6767V27.74C12.6562 28.7452 13.4711 29.56 14.4762 29.56H18.8596C19.8647 29.56 20.6796 28.7452 20.6796 27.74V11.6767C20.6796 10.6715 19.8647 9.85669 18.8596 9.85669Z" fill="white"/>
<path d="M18.8566 9.52344H14.4766C13.2899 9.52344 12.3232 10.4901 12.3232 11.6768V27.7401C12.3232 28.9268 13.2899 29.8934 14.4766 29.8934H18.8566C20.0432 29.8934 21.0099 28.9268 21.0099 27.7401V11.6768C21.0099 10.4901 20.0432 9.52344 18.8566 9.52344ZM19.6766 10.8501V18.7134H13.6532V10.8501H19.6766ZM15.6632 24.3001V22.5034H17.6699V24.3001H15.6632ZM17.6699 24.9668V26.7634H15.6632V24.9668H17.6699ZM14.9966 20.0434V21.8401H12.9899V20.0434H14.9966ZM14.9966 22.5034V24.3001H12.9899V22.5034H14.9966ZM14.9966 24.9668V26.7634H12.9899V24.9668H14.9966ZM15.6632 27.4301H17.6699V29.2268H15.6632V27.4301ZM15.6632 21.8368V20.0401H17.6699V21.8368H15.6632ZM18.3366 24.9668H20.3432V26.7634H18.3366V24.9668ZM18.3366 24.3001V22.5034H20.3432V24.3001H18.3366ZM18.3366 21.8368V20.0401H20.3432V21.8368H18.3366ZM12.9899 27.7401V27.4301H14.9966V29.2268H14.4766C13.6566 29.2268 12.9899 28.5601 12.9899 27.7401ZM18.8566 29.2268H18.3366V27.4301H20.3432V27.7401C20.3432 28.5601 19.6766 29.2268 18.8566 29.2268Z" fill="#555555"/>
</svg>
