<svg version="1.1" xmlns="http://www.w3.org/2000/svg"
	 width="172" height="160" viewBox="0 0 172 160">
<path fill="#000000" stroke="none"
	d="
M159.907745,130.999283
	C159.907745,137.465439 159.907745,143.431778 159.907745,149.697159
	C150.432037,149.697159 141.342163,149.697159 131.555130,149.697159
	C131.555130,147.809082 131.561951,145.875183 131.554077,143.941360
	C131.474045,124.280594 131.642532,104.614281 131.207855,84.961319
	C130.977905,74.565430 126.323456,69.067062 118.462990,68.028374
	C107.951180,66.639336 99.304535,71.258560 96.164047,80.594337
	C94.811752,84.614319 94.142853,89.039940 94.093422,93.292091
	C93.876602,111.944221 93.999977,130.600311 93.999977,149.628937
	C84.920403,149.628937 76.018028,149.628937 66.750351,149.628937
	C66.750351,115.683334 66.750351,81.640137 66.750351,47.359207
	C75.515228,47.359207 83.939629,47.359207 92.742477,47.359207
	C92.742477,51.428703 92.742477,55.365318 92.742477,60.234577
	C94.043610,59.100018 94.808136,58.647846 95.282578,57.987309
	C101.818771,48.887367 110.850014,45.003311 121.858620,44.837868
	C133.407333,44.664307 144.069244,46.806530 152.208008,55.803757
	C158.951111,63.258125 159.659317,72.688362 159.825607,82.008553
	C160.113922,98.167526 159.906982,114.335342 159.907745,130.999283
z"/>
<path fill="#000000" stroke="none"
	d="
M41.249233,50.161922
	C41.252789,83.592552 41.252789,116.536049 41.252789,149.740845
	C31.873812,149.740845 22.939466,149.740845 13.641155,149.740845
	C13.641155,115.692505 13.641155,81.651108 13.641155,47.037373
	C22.282656,47.037373 30.724012,46.974049 39.160294,47.151718
	C39.872818,47.166725 40.551353,48.795647 41.249233,50.161922
z"/>
<path fill="#000000" stroke="none"
	d="
M13.270641,15.288877
	C13.384731,13.377907 13.498691,11.935276 13.627068,10.310143
	C22.799000,10.310143 31.563612,10.310143 40.796452,10.310143
	C40.796452,18.644062 40.796452,26.977520 40.796452,35.611252
	C31.858345,35.611252 22.965586,35.611252 13.270512,35.611252
	C13.270512,28.936749 13.270512,22.346981 13.270641,15.288877
z"/>
</svg>
