<svg width="1000" height="1000" viewBox="0 0 1000 1000" version="1.1" xmlns="http://www.w3.org/2000/svg">
  <g fill-rule="nonzero" stroke="none" stroke-width="1" fill="none">
    <path d="M690.876 0H307.957c-108.468 0-177.3.438-242.263 65.694S0 199.781 0 307.956v382.919c0 108.54.438 177.373 65.694 242.409S200 998.978 308.175 998.978h382.701c108.54 0 177.373-.438 242.409-65.694s65.694-134.306 65.694-242.555V307.956c0-108.467-.438-177.299-65.694-242.336S799.124 0 690.876 0" fill="currentColor"/>
    <path d="M864.38 465.036c-18.219-193.919-185.204-339.54-379.796-331.219-194.598 8.321-348.533 167.679-350.124 362.445s149.723 356.613 344.153 368.117h289.343c53.204-.117 96.306-43.219 96.423-96.423zM499.416 781.021a281.898 281.898 0 1 1 281.606-281.606c-.321 155.394-126.211 281.285-281.606 281.606m272.336 32.044a41.606 41.606 0 1 1 41.533-41.606 41.605 41.605 0 0 1-41.533 41.898z" fill="#FFF"/>
  </g>
</svg>
