<svg id="svg" version="1.1" width="400" height="161.98347107438016" viewBox="0 0 400 161.98347107438016" xmlns="http://www.w3.org/2000/svg" xmlns:xlink="http://www.w3.org/1999/xlink" ><defs><filter id="grayscale">
  <feColorMatrix type="matrix" values="0.3333 0.3333 0.3333 0 0 0.3333 0.3333 0.3333 0 0 0.3333 0.3333 0.3333 0 0 0 0 0 1 0"/>
 </filter></defs><g id="svgg" filter="url(#grayscale)"><path id="path0" d="M326.833 1.000 C 326.833 1.556,326.907 2.000,327.000 2.000 C 327.092 2.000,327.167 2.375,327.167 2.833 C 327.167 3.292,327.235 3.667,327.318 3.667 C 327.401 3.667,327.495 4.067,327.526 4.557 C 327.588 5.528,327.270 5.678,326.647 4.972 C 326.499 4.804,326.293 4.667,326.189 4.667 C 326.085 4.667,326.000 4.603,326.000 4.525 C 326.000 4.448,325.700 4.249,325.333 4.083 C 324.967 3.918,324.667 3.719,324.667 3.641 C 324.667 3.564,324.554 3.500,324.417 3.500 C 324.279 3.500,324.167 3.425,324.167 3.333 C 324.167 3.242,324.017 3.167,323.833 3.167 C 323.650 3.167,323.500 3.103,323.500 3.026 C 323.500 2.949,323.237 2.744,322.917 2.572 C 322.596 2.399,322.333 2.200,322.333 2.129 C 322.333 2.058,322.183 2.000,322.000 2.000 C 321.817 2.000,321.667 1.925,321.667 1.833 C 321.667 1.742,321.479 1.667,321.250 1.667 C 320.885 1.667,320.833 1.739,320.833 2.250 C 320.833 2.571,320.758 2.833,320.667 2.833 C 320.570 2.833,320.500 3.361,320.500 4.083 C 320.500 5.222,320.470 5.333,320.167 5.333 C 319.983 5.333,319.833 5.258,319.833 5.167 C 319.833 5.075,319.721 5.000,319.583 5.000 C 319.446 5.000,319.333 4.925,319.333 4.833 C 319.333 4.742,319.218 4.667,319.076 4.667 C 318.935 4.667,318.658 4.517,318.462 4.333 C 318.265 4.150,317.893 4.000,317.635 4.000 L 317.167 4.000 317.167 5.250 C 317.167 6.472,317.157 6.500,316.750 6.500 C 316.521 6.500,316.333 6.425,316.333 6.333 C 316.333 6.242,316.183 6.167,316.000 6.167 C 315.817 6.167,315.667 6.092,315.667 6.000 C 315.667 5.908,315.479 5.833,315.250 5.833 C 314.885 5.833,314.833 5.906,314.833 6.417 C 314.833 6.737,314.908 7.000,315.000 7.000 C 315.092 7.000,315.167 7.225,315.167 7.500 C 315.167 7.775,315.232 8.000,315.312 8.000 C 315.392 8.000,315.508 8.450,315.570 9.000 C 315.632 9.550,315.754 10.000,315.842 10.000 C 315.929 10.000,316.000 10.258,316.000 10.573 C 316.000 10.889,316.075 11.193,316.167 11.250 C 316.489 11.449,316.359 12.167,316.000 12.167 C 315.817 12.167,315.667 12.100,315.667 12.019 C 315.667 11.872,315.142 11.729,313.958 11.556 C 313.351 11.468,313.333 11.479,313.333 11.982 C 313.333 12.267,313.408 12.500,313.500 12.500 C 313.592 12.500,313.667 12.688,313.667 12.917 C 313.667 13.146,313.732 13.333,313.812 13.333 C 313.892 13.333,314.008 13.781,314.070 14.328 C 314.131 14.875,314.254 15.367,314.341 15.421 C 314.428 15.475,314.500 15.703,314.500 15.927 C 314.500 16.150,314.575 16.333,314.667 16.333 C 314.758 16.333,314.833 16.596,314.833 16.917 C 314.833 17.237,314.908 17.500,315.000 17.500 C 315.092 17.500,315.167 17.725,315.167 18.000 C 315.167 18.275,315.242 18.500,315.333 18.500 C 315.425 18.500,315.500 18.638,315.500 18.807 C 315.500 19.182,316.235 19.580,317.583 19.933 C 318.133 20.078,318.846 20.269,319.167 20.359 C 319.487 20.449,319.938 20.561,320.167 20.607 C 320.396 20.654,320.733 20.752,320.917 20.825 C 321.100 20.898,321.813 21.088,322.500 21.247 C 323.837 21.557,324.714 21.800,325.250 22.011 C 325.433 22.083,325.771 22.178,326.000 22.222 C 326.451 22.309,329.386 23.074,330.333 23.351 C 330.654 23.445,331.179 23.585,331.500 23.663 C 332.265 23.847,335.256 24.643,336.000 24.860 C 336.321 24.954,336.828 25.070,337.127 25.117 C 337.425 25.165,337.711 25.270,337.761 25.352 C 337.812 25.433,338.000 25.500,338.179 25.500 C 338.525 25.500,341.523 26.270,342.083 26.503 C 342.267 26.579,342.604 26.678,342.833 26.722 C 343.285 26.809,346.219 27.574,347.167 27.851 C 348.779 28.323,350.515 28.707,350.610 28.612 C 350.658 28.564,350.620 28.276,350.527 27.971 C 350.233 27.017,349.082 22.455,348.831 21.250 C 348.647 20.367,348.711 20.326,350.435 20.235 C 353.416 20.077,353.662 19.924,352.588 18.895 C 352.173 18.498,351.833 18.104,351.833 18.021 C 351.833 17.938,351.346 17.363,350.750 16.744 C 350.154 16.124,349.667 15.554,349.667 15.478 C 349.667 15.402,349.179 14.852,348.583 14.256 C 347.988 13.660,347.500 13.131,347.500 13.079 C 347.500 12.949,347.207 12.607,346.292 11.669 C 345.856 11.223,345.500 10.800,345.500 10.729 C 345.500 10.659,345.275 10.372,344.999 10.092 C 343.934 9.009,343.333 8.340,343.333 8.236 C 343.333 8.176,342.846 7.649,342.250 7.065 C 341.654 6.481,341.167 5.935,341.167 5.852 C 341.167 5.674,340.250 4.667,340.088 4.667 C 339.810 4.667,339.500 5.188,339.500 5.655 C 339.500 5.936,339.425 6.167,339.333 6.167 C 339.242 6.167,339.167 6.392,339.167 6.667 C 339.167 6.942,339.092 7.167,339.000 7.167 C 338.908 7.167,338.833 7.429,338.833 7.750 C 338.833 8.556,338.367 8.527,337.480 7.667 C 337.102 7.300,336.731 7.000,336.654 7.000 C 336.578 7.000,336.328 6.813,336.098 6.583 C 335.869 6.354,335.595 6.167,335.490 6.167 C 335.384 6.167,335.150 5.979,334.970 5.750 C 334.790 5.521,334.528 5.333,334.388 5.333 C 334.248 5.333,333.924 5.108,333.667 4.833 C 333.410 4.558,333.152 4.333,333.093 4.333 C 332.991 4.333,332.765 4.165,332.256 3.708 C 332.128 3.594,331.978 3.500,331.921 3.500 C 331.864 3.500,331.631 3.313,331.402 3.083 C 331.172 2.854,330.924 2.667,330.850 2.667 C 330.777 2.667,330.481 2.442,330.193 2.167 C 329.905 1.892,329.586 1.667,329.484 1.667 C 329.382 1.667,329.150 1.479,328.970 1.250 C 328.790 1.021,328.516 0.833,328.361 0.833 C 328.206 0.833,327.938 0.646,327.766 0.417 C 327.183 -0.360,326.833 -0.141,326.833 1.000 M384.833 25.833 C 384.833 25.932,384.222 26.000,383.333 26.000 C 382.444 26.000,381.833 26.068,381.833 26.167 C 381.833 26.264,381.278 26.333,380.500 26.333 C 379.767 26.333,379.167 26.400,379.167 26.481 C 379.167 26.563,378.920 26.676,378.620 26.732 C 378.319 26.789,377.965 26.984,377.833 27.167 C 377.701 27.350,377.460 27.500,377.297 27.500 C 377.133 27.500,377.000 27.575,377.000 27.667 C 377.000 27.758,376.920 27.833,376.821 27.833 C 376.723 27.833,376.530 27.946,376.393 28.083 C 376.255 28.221,375.998 28.333,375.821 28.333 C 375.645 28.333,375.500 28.408,375.500 28.500 C 375.500 28.592,375.404 28.667,375.287 28.667 C 375.170 28.667,374.965 28.817,374.833 29.000 C 374.701 29.183,374.487 29.333,374.358 29.333 C 374.229 29.333,373.875 29.596,373.573 29.917 C 373.270 30.238,372.937 30.500,372.833 30.500 C 372.729 30.500,372.406 30.745,372.114 31.044 C 371.822 31.343,371.378 31.693,371.128 31.821 C 370.877 31.949,370.630 32.185,370.579 32.346 C 370.528 32.507,370.283 32.710,370.035 32.796 C 368.936 33.180,368.267 34.229,368.653 34.961 C 368.737 35.120,368.929 35.674,369.080 36.192 C 369.231 36.710,369.574 37.482,369.844 37.906 C 370.113 38.331,370.333 38.751,370.333 38.839 C 370.333 38.928,370.414 39.000,370.512 39.000 C 370.611 39.000,370.667 39.128,370.636 39.284 C 370.584 39.557,369.692 39.806,366.250 40.511 C 365.792 40.604,365.098 40.753,364.708 40.841 C 364.319 40.928,363.681 41.065,363.292 41.145 C 362.902 41.225,361.683 41.497,360.583 41.748 C 358.397 42.248,357.358 42.471,356.569 42.608 C 356.286 42.657,355.311 42.530,354.402 42.327 C 353.494 42.124,352.450 41.896,352.083 41.822 C 351.717 41.747,351.079 41.608,350.667 41.513 C 350.254 41.418,349.248 41.201,348.432 41.031 L 346.947 40.721 345.265 41.285 C 344.340 41.596,343.433 41.917,343.250 41.998 C 343.067 42.080,342.092 42.417,341.083 42.748 C 340.075 43.078,339.100 43.416,338.917 43.499 C 338.733 43.582,337.946 43.848,337.167 44.091 C 336.387 44.335,335.620 44.601,335.461 44.684 C 335.301 44.766,335.020 44.833,334.836 44.833 C 334.651 44.833,334.500 44.908,334.500 45.000 C 334.500 45.092,334.327 45.167,334.117 45.167 C 333.906 45.167,333.662 45.228,333.575 45.303 C 333.488 45.377,332.742 45.648,331.917 45.904 C 330.475 46.351,330.115 46.477,329.292 46.825 C 328.167 47.300,327.198 47.519,326.625 47.428 C 326.250 47.369,326.000 47.397,326.000 47.498 C 326.000 47.591,325.775 47.667,325.500 47.667 C 325.105 47.667,325.000 47.739,325.000 48.012 C 325.000 48.421,325.370 48.833,325.738 48.833 C 325.882 48.833,326.000 48.905,326.000 48.992 C 326.000 49.080,326.262 49.201,326.583 49.261 C 326.904 49.321,327.167 49.437,327.167 49.519 C 327.167 49.600,327.279 49.667,327.417 49.667 C 327.554 49.667,327.667 49.742,327.667 49.833 C 327.667 49.925,327.817 50.000,328.000 50.000 C 328.183 50.000,328.333 50.075,328.333 50.167 C 328.333 50.258,328.483 50.333,328.667 50.333 C 328.850 50.333,329.000 50.408,329.000 50.500 C 329.000 50.592,329.108 50.667,329.240 50.667 C 329.617 50.667,329.721 50.990,329.386 51.117 C 328.652 51.395,328.423 52.067,329.000 52.250 C 329.183 52.308,329.333 52.426,329.333 52.511 C 329.333 52.597,329.446 52.667,329.583 52.667 C 329.721 52.667,329.833 52.742,329.833 52.833 C 329.833 52.925,329.983 53.000,330.167 53.000 C 330.350 53.000,330.500 53.057,330.500 53.127 C 330.500 53.282,331.737 53.833,332.084 53.833 C 332.221 53.833,332.333 53.908,332.333 54.000 C 332.333 54.092,332.446 54.167,332.583 54.167 C 332.721 54.167,332.833 54.242,332.833 54.333 C 332.833 54.425,332.983 54.500,333.167 54.500 C 333.350 54.500,333.500 54.575,333.500 54.667 C 333.500 54.758,333.612 54.833,333.750 54.833 C 333.887 54.833,334.000 54.908,334.000 55.000 C 334.000 55.092,333.899 55.167,333.776 55.167 C 333.445 55.167,332.833 55.747,332.833 56.061 C 332.833 56.219,332.969 56.333,333.157 56.333 C 333.335 56.333,333.525 56.406,333.580 56.495 C 333.635 56.584,334.052 56.706,334.507 56.767 C 334.961 56.827,335.333 56.942,335.333 57.021 C 335.333 57.101,335.521 57.167,335.750 57.167 C 335.979 57.167,336.167 57.242,336.167 57.333 C 336.167 57.425,336.350 57.500,336.573 57.500 C 336.797 57.500,337.027 57.575,337.083 57.667 C 337.140 57.758,337.369 57.833,337.593 57.833 C 337.817 57.833,338.000 57.903,338.000 57.988 C 338.000 58.073,338.412 58.194,338.917 58.257 C 339.421 58.320,339.833 58.438,339.833 58.519 C 339.833 58.600,340.021 58.667,340.250 58.667 C 340.479 58.667,340.667 58.742,340.667 58.833 C 340.667 58.925,340.817 59.000,341.000 59.000 C 341.306 59.000,341.333 59.111,341.333 60.333 C 341.333 61.826,341.359 61.853,342.170 61.200 C 342.489 60.943,344.438 59.552,346.500 58.108 C 348.563 56.664,351.450 54.624,352.917 53.575 C 355.734 51.560,356.056 51.438,357.132 51.984 C 357.544 52.192,358.139 52.434,359.056 52.765 C 359.971 53.096,360.420 52.998,362.833 51.946 C 363.154 51.806,363.867 51.531,364.417 51.334 C 364.967 51.137,365.604 50.897,365.833 50.799 C 366.300 50.601,366.916 50.353,367.417 50.161 C 367.600 50.091,368.024 49.914,368.359 49.767 C 368.693 49.620,369.050 49.500,369.152 49.500 C 369.330 49.500,369.495 49.432,370.255 49.047 C 370.442 48.953,370.817 48.825,371.089 48.764 C 371.484 48.674,371.831 48.286,372.812 46.842 C 373.743 45.471,374.147 45.011,374.479 44.946 C 374.720 44.899,375.179 44.785,375.500 44.692 C 375.821 44.599,376.946 44.287,378.000 43.998 C 379.054 43.709,380.093 43.402,380.308 43.316 L 380.700 43.159 380.232 42.538 C 379.974 42.196,379.704 41.892,379.632 41.861 C 379.559 41.831,379.500 41.699,379.500 41.569 C 379.500 41.440,379.443 41.333,379.374 41.333 C 379.305 41.333,378.948 40.885,378.582 40.338 C 378.216 39.790,377.860 39.340,377.792 39.338 C 377.723 39.335,377.667 39.221,377.667 39.083 C 377.667 38.946,377.610 38.833,377.542 38.832 C 377.473 38.832,377.229 38.556,377.000 38.219 C 376.771 37.883,376.507 37.527,376.413 37.429 C 374.985 35.928,374.881 35.150,376.083 34.963 C 376.867 34.840,379.552 34.145,379.873 33.981 C 380.032 33.900,380.314 33.833,380.500 33.833 C 380.686 33.833,380.968 33.767,381.127 33.686 C 381.475 33.508,384.202 32.808,384.943 32.706 C 385.307 32.656,385.620 32.746,385.959 32.996 C 386.627 33.490,387.607 33.599,388.401 33.267 C 388.753 33.120,389.267 33.000,389.543 33.000 C 390.402 33.000,392.157 32.620,392.056 32.456 C 391.940 32.269,391.619 28.940,391.598 27.718 L 391.583 26.853 390.792 26.744 C 390.357 26.684,389.958 26.567,389.907 26.484 C 389.856 26.401,389.556 26.333,389.240 26.333 C 388.925 26.333,388.667 26.258,388.667 26.167 C 388.667 26.075,388.479 26.000,388.250 26.000 C 388.021 26.000,387.833 25.925,387.833 25.833 C 387.833 25.735,387.222 25.667,386.333 25.667 C 385.444 25.667,384.833 25.735,384.833 25.833 M394.667 35.467 C 394.529 35.512,394.379 35.599,394.333 35.659 C 394.287 35.719,393.950 35.944,393.583 36.160 C 391.903 37.148,390.095 39.351,389.516 41.117 C 389.222 42.015,388.910 42.880,388.824 43.039 C 388.737 43.199,388.667 43.700,388.667 44.155 C 388.667 44.609,388.592 45.027,388.500 45.083 C 388.408 45.140,388.333 45.519,388.333 45.927 C 388.333 46.334,388.408 46.667,388.500 46.667 C 388.592 46.667,388.667 46.554,388.667 46.417 C 388.667 46.279,388.742 46.167,388.833 46.167 C 388.925 46.167,389.000 46.017,389.000 45.833 C 389.000 45.650,389.075 45.500,389.167 45.500 C 389.258 45.500,389.333 45.350,389.333 45.167 C 389.333 44.983,389.393 44.833,389.466 44.833 C 389.539 44.833,389.738 44.496,389.908 44.083 C 390.078 43.671,390.267 43.333,390.327 43.333 C 390.388 43.333,390.541 43.071,390.667 42.750 C 390.793 42.429,390.957 42.167,391.031 42.167 C 391.106 42.167,391.169 42.035,391.172 41.875 C 391.175 41.715,391.287 41.438,391.422 41.260 C 391.557 41.082,391.667 40.801,391.667 40.635 C 391.667 40.469,391.742 40.333,391.833 40.333 C 391.925 40.333,392.000 40.221,392.000 40.083 C 392.000 39.946,392.075 39.833,392.167 39.833 C 392.258 39.833,392.333 39.700,392.333 39.537 C 392.333 39.374,392.483 39.132,392.667 39.000 C 392.850 38.868,393.000 38.667,393.000 38.554 C 393.000 38.441,393.188 38.161,393.417 37.932 C 393.646 37.703,393.833 37.417,393.833 37.298 C 393.833 37.178,393.983 36.987,394.167 36.872 C 394.350 36.758,394.500 36.557,394.500 36.427 C 394.500 36.297,394.619 36.072,394.763 35.927 C 395.076 35.615,395.020 35.349,394.667 35.467 M374.750 55.486 C 373.833 55.933,372.258 56.688,371.250 57.164 C 370.242 57.641,368.817 58.317,368.083 58.668 C 367.350 59.018,366.113 59.603,365.333 59.968 C 363.051 61.037,360.736 62.134,358.417 63.245 C 357.225 63.815,355.725 64.528,355.083 64.829 C 354.442 65.130,353.078 65.779,352.054 66.271 C 351.029 66.764,350.139 67.167,350.075 67.167 C 350.011 67.167,349.349 67.443,348.604 67.781 C 347.859 68.118,346.912 68.455,346.500 68.530 C 346.087 68.604,345.337 68.741,344.833 68.835 C 343.415 69.097,343.096 69.133,340.326 69.344 L 337.736 69.541 336.743 69.087 C 336.197 68.838,335.702 68.556,335.643 68.460 C 335.577 68.354,335.366 68.442,335.098 68.685 C 334.690 69.058,334.483 69.261,333.550 70.210 C 333.057 70.711,332.702 71.000,332.580 71.000 C 332.524 71.000,331.884 71.581,331.158 72.292 C 330.431 73.002,329.742 73.669,329.627 73.774 C 329.511 73.878,329.177 74.216,328.883 74.524 C 328.590 74.831,328.177 75.251,327.966 75.456 C 327.756 75.661,327.416 75.998,327.211 76.206 C 326.610 76.815,326.019 77.333,325.924 77.333 C 325.689 77.333,320.833 82.335,320.833 82.578 C 320.833 82.849,320.462 83.333,320.254 83.333 C 320.198 83.333,319.971 83.502,319.750 83.708 C 319.140 84.279,318.858 84.500,318.741 84.500 C 318.682 84.500,318.424 84.725,318.167 85.000 C 317.910 85.275,317.596 85.500,317.470 85.500 C 317.344 85.500,317.112 85.651,316.954 85.835 C 316.638 86.204,316.571 86.667,316.833 86.667 C 316.925 86.667,317.000 86.745,317.000 86.841 C 317.000 87.032,316.249 87.833,316.070 87.833 C 315.820 87.833,309.667 94.134,309.667 94.390 C 309.667 94.594,309.817 94.667,310.234 94.667 C 310.800 94.667,310.801 94.669,310.712 95.333 L 310.623 96.000 311.228 96.000 C 311.561 96.000,311.833 95.925,311.833 95.833 C 311.833 95.742,311.946 95.667,312.083 95.667 C 312.221 95.667,312.333 95.592,312.333 95.500 C 312.333 95.408,312.408 95.333,312.500 95.333 C 312.592 95.333,312.667 95.596,312.667 95.917 C 312.667 96.548,313.105 96.726,313.589 96.292 C 314.134 95.803,314.328 95.667,314.478 95.667 C 314.566 95.667,314.826 95.442,315.058 95.167 C 315.289 94.892,315.578 94.667,315.699 94.667 C 315.821 94.667,316.122 94.479,316.369 94.250 C 316.617 94.021,316.863 93.833,316.917 93.833 C 316.971 93.833,317.203 93.646,317.432 93.417 C 317.661 93.188,317.909 93.000,317.983 93.000 C 318.057 93.000,318.353 92.775,318.640 92.500 C 318.928 92.225,319.221 92.000,319.292 92.000 C 319.362 92.000,319.607 91.831,319.835 91.625 C 320.063 91.419,320.455 91.144,320.706 91.015 C 320.956 90.886,321.205 90.642,321.258 90.473 C 321.312 90.305,321.483 90.167,321.638 90.167 C 321.793 90.167,322.122 89.979,322.369 89.750 C 322.617 89.521,322.863 89.333,322.917 89.333 C 322.971 89.333,323.203 89.146,323.432 88.917 C 323.661 88.688,323.909 88.500,323.983 88.500 C 324.057 88.500,324.353 88.275,324.640 88.000 C 324.928 87.725,325.314 87.500,325.498 87.500 C 325.683 87.500,325.833 87.432,325.833 87.348 C 325.833 87.264,326.149 87.143,326.535 87.077 C 326.921 87.012,327.371 86.893,327.535 86.813 C 327.699 86.732,327.982 86.592,328.164 86.500 C 328.346 86.408,328.609 86.333,328.748 86.333 C 328.886 86.333,329.000 86.258,329.000 86.167 C 329.000 86.075,329.188 86.000,329.417 86.000 C 329.646 86.000,329.833 85.934,329.833 85.852 C 329.833 85.771,330.171 85.654,330.583 85.592 C 330.996 85.530,331.333 85.409,331.333 85.323 C 331.333 85.237,331.521 85.167,331.750 85.167 C 331.979 85.167,332.167 85.092,332.167 85.000 C 332.167 84.908,332.350 84.833,332.573 84.833 C 332.797 84.833,333.027 84.758,333.083 84.667 C 333.140 84.575,333.369 84.500,333.593 84.500 C 333.817 84.500,334.000 84.433,334.000 84.351 C 334.000 84.269,334.675 84.149,335.500 84.083 C 336.325 84.018,337.000 83.898,337.000 83.816 C 337.000 83.734,337.412 83.667,337.917 83.667 C 338.421 83.667,338.833 83.592,338.833 83.500 C 338.833 83.408,339.171 83.333,339.583 83.333 C 339.996 83.333,340.333 83.258,340.333 83.167 C 340.333 83.073,340.806 83.000,341.417 83.000 C 342.012 83.000,342.500 82.935,342.500 82.855 C 342.500 82.775,343.324 82.656,344.332 82.591 C 345.340 82.525,346.207 82.403,346.259 82.319 C 346.311 82.235,346.686 82.167,347.093 82.167 C 347.500 82.167,347.833 82.092,347.833 82.000 C 347.833 81.908,348.171 81.833,348.583 81.833 C 348.996 81.833,349.333 81.758,349.333 81.667 C 349.333 81.575,349.596 81.500,349.917 81.500 C 350.238 81.500,350.500 81.425,350.500 81.333 C 350.500 81.242,350.800 81.167,351.167 81.167 C 351.533 81.167,351.833 81.101,351.833 81.022 C 351.833 80.942,352.283 80.825,352.833 80.763 C 353.383 80.701,353.833 80.579,353.833 80.492 C 353.833 80.405,354.096 80.333,354.417 80.333 C 354.738 80.333,355.000 80.258,355.000 80.167 C 355.000 80.075,355.225 80.000,355.500 80.000 C 355.775 80.000,356.000 79.925,356.000 79.833 C 356.000 79.742,356.188 79.667,356.417 79.667 C 356.646 79.667,356.833 79.602,356.833 79.522 C 356.833 79.442,357.150 79.335,357.538 79.283 C 357.926 79.231,358.269 79.108,358.302 79.011 C 358.334 78.913,358.490 78.833,358.647 78.833 C 359.009 78.833,359.830 78.458,359.832 78.292 C 359.833 78.223,359.983 78.167,360.167 78.167 C 360.350 78.167,360.500 78.100,360.500 78.019 C 360.500 77.938,360.837 77.821,361.250 77.759 C 361.662 77.697,362.000 77.590,362.000 77.521 C 362.000 77.452,362.262 77.293,362.583 77.167 C 362.904 77.041,363.167 76.877,363.167 76.802 C 363.167 76.728,363.317 76.667,363.500 76.667 C 363.683 76.667,363.833 76.600,363.833 76.518 C 363.833 76.436,364.021 76.322,364.250 76.265 C 364.479 76.207,364.667 76.087,364.667 75.997 C 364.667 75.907,364.817 75.833,365.000 75.833 C 365.183 75.833,365.333 75.758,365.333 75.667 C 365.333 75.575,365.418 75.500,365.522 75.500 C 365.626 75.500,365.832 75.362,365.980 75.193 C 366.129 75.025,366.468 74.833,366.734 74.767 C 367.000 74.701,367.424 74.427,367.676 74.157 C 367.928 73.887,368.198 73.667,368.277 73.667 C 368.356 73.667,368.622 73.479,368.869 73.250 C 369.117 73.021,369.385 72.833,369.466 72.833 C 369.547 72.833,369.852 72.571,370.144 72.250 C 370.436 71.929,370.761 71.667,370.866 71.667 C 370.971 71.667,371.379 71.348,371.772 70.958 C 372.165 70.569,372.658 70.082,372.868 69.878 C 373.483 69.278,374.000 68.686,374.000 68.582 C 374.000 68.528,374.169 68.304,374.375 68.084 C 374.927 67.493,375.167 67.192,375.167 67.089 C 375.167 67.038,375.389 66.764,375.662 66.479 C 375.934 66.194,376.201 65.820,376.256 65.647 C 376.311 65.475,376.426 65.333,376.511 65.333 C 376.597 65.333,376.667 65.183,376.667 65.000 C 376.667 64.817,376.742 64.667,376.833 64.667 C 376.925 64.667,377.000 64.554,377.000 64.417 C 377.000 64.279,377.075 64.167,377.167 64.167 C 377.258 64.167,377.333 64.017,377.333 63.833 C 377.333 63.650,377.394 63.500,377.468 63.500 C 377.636 63.500,378.167 62.318,378.167 61.944 C 378.167 61.791,378.223 61.666,378.292 61.665 C 378.461 61.664,378.833 60.839,378.833 60.467 C 378.833 60.302,378.905 60.167,378.992 60.167 C 379.079 60.167,379.201 59.717,379.263 59.167 C 379.325 58.617,379.434 58.167,379.505 58.167 C 379.576 58.167,379.397 57.920,379.108 57.617 C 378.532 57.015,378.386 56.832,377.444 55.542 C 376.672 54.484,376.802 54.487,374.750 55.486 M192.500 63.667 C 192.500 63.758,192.088 63.833,191.583 63.833 C 191.079 63.833,190.667 63.908,190.667 64.000 C 190.667 64.092,190.404 64.167,190.083 64.167 C 189.762 64.167,189.500 64.234,189.500 64.316 C 189.500 64.399,188.975 64.519,188.333 64.583 C 187.692 64.648,187.167 64.768,187.167 64.850 C 187.167 64.933,187.017 65.000,186.833 65.000 C 186.650 65.000,186.500 65.075,186.500 65.167 C 186.500 65.258,186.313 65.333,186.083 65.333 C 185.854 65.333,185.667 65.408,185.667 65.500 C 185.667 65.592,185.442 65.667,185.167 65.667 C 184.892 65.667,184.667 65.738,184.667 65.826 C 184.667 65.913,184.404 66.034,184.083 66.094 C 183.762 66.155,183.500 66.270,183.500 66.352 C 183.500 66.433,183.350 66.500,183.167 66.500 C 182.983 66.500,182.833 66.575,182.833 66.667 C 182.833 66.758,182.721 66.833,182.583 66.833 C 182.446 66.833,182.333 66.908,182.333 67.000 C 182.333 67.092,182.183 67.167,182.000 67.167 C 181.817 67.167,181.667 67.240,181.667 67.330 C 181.667 67.420,181.479 67.541,181.250 67.598 C 181.021 67.656,180.833 67.770,180.833 67.851 C 180.833 67.933,180.700 68.000,180.537 68.000 C 180.374 68.000,180.132 68.150,180.000 68.333 C 179.868 68.517,179.664 68.667,179.547 68.667 C 179.429 68.667,179.333 68.740,179.333 68.830 C 179.333 68.920,179.146 69.041,178.916 69.098 C 178.687 69.156,178.317 69.420,178.094 69.685 C 177.871 69.950,177.601 70.167,177.495 70.167 C 177.205 70.167,173.000 74.429,173.000 74.723 C 173.000 74.863,172.857 75.023,172.683 75.078 C 172.508 75.134,172.234 75.457,172.074 75.798 C 171.913 76.138,171.643 76.538,171.474 76.686 C 171.305 76.834,171.167 77.041,171.167 77.145 C 171.167 77.248,171.092 77.333,171.000 77.333 C 170.908 77.333,170.833 77.475,170.833 77.649 C 170.833 77.822,170.721 78.008,170.583 78.060 C 170.446 78.113,170.333 78.309,170.333 78.495 C 170.333 78.681,170.258 78.833,170.167 78.833 C 170.075 78.833,170.000 78.983,170.000 79.167 C 170.000 79.350,169.925 79.500,169.833 79.500 C 169.742 79.500,169.667 79.612,169.667 79.750 C 169.667 79.887,169.592 80.000,169.500 80.000 C 169.408 80.000,169.333 80.150,169.333 80.333 C 169.333 80.517,169.262 80.667,169.174 80.667 C 169.087 80.667,168.966 80.929,168.906 81.250 C 168.845 81.571,168.730 81.833,168.648 81.833 C 168.567 81.833,168.500 81.983,168.500 82.167 C 168.500 82.350,168.425 82.500,168.333 82.500 C 168.242 82.500,168.167 82.688,168.167 82.917 C 168.167 83.146,168.092 83.333,168.000 83.333 C 167.908 83.333,167.833 83.516,167.833 83.740 C 167.833 83.964,167.765 84.189,167.682 84.240 C 167.599 84.292,167.480 84.709,167.417 85.167 C 167.354 85.625,167.234 86.000,167.151 86.000 C 167.068 86.000,167.000 86.263,167.000 86.583 C 167.000 86.904,166.925 87.167,166.833 87.167 C 166.742 87.167,166.667 87.467,166.667 87.833 C 166.667 88.200,166.592 88.500,166.500 88.500 C 166.408 88.500,166.333 88.860,166.333 89.300 C 166.333 89.740,166.240 90.194,166.125 90.308 C 165.967 90.467,165.917 91.852,165.917 96.083 C 165.917 100.314,165.967 101.700,166.125 101.858 C 166.240 101.973,166.333 102.427,166.333 102.867 C 166.333 103.307,166.408 103.667,166.500 103.667 C 166.592 103.667,166.667 104.004,166.667 104.417 C 166.667 104.829,166.742 105.167,166.833 105.167 C 166.925 105.167,167.000 105.392,167.000 105.667 C 167.000 105.942,167.065 106.167,167.145 106.167 C 167.225 106.167,167.341 106.617,167.403 107.167 C 167.466 107.717,167.588 108.167,167.675 108.167 C 167.762 108.167,167.833 108.317,167.833 108.500 C 167.833 108.683,167.908 108.833,168.000 108.833 C 168.092 108.833,168.167 109.021,168.167 109.250 C 168.167 109.479,168.242 109.667,168.333 109.667 C 168.425 109.667,168.500 109.817,168.500 110.000 C 168.500 110.183,168.567 110.333,168.648 110.333 C 168.730 110.333,168.845 110.596,168.906 110.917 C 168.966 111.237,169.087 111.500,169.174 111.500 C 169.262 111.500,169.333 111.650,169.333 111.833 C 169.333 112.017,169.408 112.167,169.500 112.167 C 169.592 112.167,169.667 112.279,169.667 112.417 C 169.667 112.554,169.742 112.667,169.833 112.667 C 169.925 112.667,170.000 112.817,170.000 113.000 C 170.000 113.183,170.075 113.333,170.167 113.333 C 170.258 113.333,170.333 113.486,170.333 113.672 C 170.333 113.858,170.446 114.054,170.583 114.106 C 170.721 114.159,170.833 114.344,170.833 114.518 C 170.833 114.691,170.908 114.833,171.000 114.833 C 171.092 114.833,171.167 114.942,171.167 115.074 C 171.167 115.206,171.305 115.412,171.474 115.532 C 171.643 115.652,171.913 116.028,172.073 116.369 C 172.234 116.709,172.508 117.033,172.683 117.088 C 172.857 117.144,173.000 117.305,173.000 117.446 C 173.000 117.729,177.039 121.833,177.318 121.833 C 177.413 121.833,177.731 122.096,178.023 122.417 C 178.315 122.737,178.654 123.000,178.777 123.000 C 178.900 123.000,179.000 123.070,179.000 123.155 C 179.000 123.241,179.169 123.364,179.375 123.429 C 179.581 123.494,179.871 123.687,180.020 123.857 C 180.168 124.027,180.412 124.167,180.561 124.167 C 180.711 124.167,180.833 124.242,180.833 124.333 C 180.833 124.425,180.937 124.500,181.063 124.500 C 181.189 124.500,181.386 124.612,181.500 124.750 C 181.614 124.888,181.848 125.000,182.020 125.000 C 182.193 125.000,182.333 125.075,182.333 125.167 C 182.333 125.258,182.446 125.333,182.583 125.333 C 182.721 125.333,182.833 125.408,182.833 125.500 C 182.833 125.592,182.983 125.667,183.167 125.667 C 183.350 125.667,183.500 125.742,183.500 125.833 C 183.500 125.925,183.646 126.000,183.823 126.000 C 184.001 126.000,184.189 126.068,184.241 126.152 C 184.293 126.236,184.635 126.355,185.001 126.417 C 185.367 126.479,185.667 126.598,185.667 126.681 C 185.667 126.765,185.854 126.833,186.083 126.833 C 186.313 126.833,186.500 126.908,186.500 127.000 C 186.500 127.092,186.688 127.167,186.917 127.167 C 187.146 127.167,187.333 127.242,187.333 127.333 C 187.333 127.425,187.554 127.500,187.823 127.500 C 188.093 127.500,188.356 127.569,188.409 127.654 C 188.461 127.738,188.990 127.859,189.585 127.923 C 190.180 127.987,190.667 128.105,190.667 128.186 C 190.667 128.267,191.079 128.333,191.583 128.333 C 192.088 128.333,192.500 128.408,192.500 128.500 C 192.500 128.607,194.306 128.667,197.583 128.667 C 200.861 128.667,202.667 128.607,202.667 128.500 C 202.667 128.408,203.079 128.333,203.583 128.333 C 204.088 128.333,204.500 128.269,204.500 128.191 C 204.500 128.112,205.006 128.001,205.624 127.943 C 206.242 127.885,206.774 127.762,206.805 127.669 C 206.836 127.576,207.113 127.500,207.421 127.500 C 207.729 127.500,208.027 127.425,208.083 127.333 C 208.140 127.242,208.369 127.167,208.593 127.167 C 208.817 127.167,209.000 127.092,209.000 127.000 C 209.000 126.908,209.150 126.833,209.333 126.833 C 209.517 126.833,209.667 126.758,209.667 126.667 C 209.667 126.575,209.816 126.500,209.999 126.500 C 210.410 126.500,211.667 125.968,211.667 125.794 C 211.667 125.724,211.817 125.667,212.000 125.667 C 212.183 125.667,212.333 125.592,212.333 125.500 C 212.333 125.408,212.483 125.333,212.667 125.333 C 212.850 125.333,213.000 125.266,213.000 125.185 C 213.000 125.103,213.188 124.989,213.417 124.932 C 213.646 124.874,213.833 124.753,213.833 124.663 C 213.833 124.574,213.945 124.500,214.082 124.500 C 214.219 124.500,214.424 124.350,214.539 124.167 C 214.653 123.983,214.879 123.833,215.040 123.833 C 215.201 123.833,215.334 123.777,215.334 123.708 C 215.335 123.640,215.614 123.396,215.954 123.167 C 216.824 122.581,220.443 118.942,220.578 118.518 C 220.639 118.325,220.759 118.167,220.845 118.167 C 221.071 118.167,221.035 117.528,220.792 117.234 C 220.250 116.578,219.473 115.833,219.332 115.833 C 219.245 115.833,218.748 115.421,218.228 114.917 C 217.707 114.412,217.199 113.998,217.099 113.996 C 216.999 113.994,216.692 113.732,216.418 113.413 C 215.821 112.719,214.968 112.603,214.662 113.175 C 214.410 113.647,211.650 116.333,211.418 116.333 C 211.365 116.333,211.060 116.596,210.739 116.917 C 210.418 117.237,210.062 117.500,209.948 117.500 C 209.834 117.500,209.632 117.650,209.500 117.833 C 209.368 118.017,209.126 118.167,208.963 118.167 C 208.800 118.167,208.667 118.242,208.667 118.333 C 208.667 118.425,208.554 118.500,208.417 118.500 C 208.279 118.500,208.167 118.575,208.167 118.667 C 208.167 118.758,208.031 118.833,207.865 118.833 C 207.699 118.833,207.418 118.943,207.240 119.078 C 207.062 119.213,206.785 119.325,206.625 119.328 C 206.465 119.331,206.333 119.408,206.333 119.500 C 206.333 119.592,206.183 119.667,206.000 119.667 C 205.817 119.667,205.667 119.742,205.667 119.833 C 205.667 119.925,205.479 120.000,205.250 120.000 C 205.021 120.000,204.833 120.071,204.833 120.158 C 204.833 120.246,204.382 120.368,203.830 120.430 C 203.278 120.493,202.786 120.609,202.736 120.689 C 202.687 120.768,202.314 120.833,201.907 120.833 C 201.500 120.833,201.167 120.908,201.167 121.000 C 201.167 121.106,199.806 121.167,197.417 121.167 C 195.028 121.167,193.667 121.106,193.667 121.000 C 193.667 120.908,193.335 120.833,192.931 120.833 C 192.526 120.833,192.169 120.759,192.139 120.668 C 192.108 120.578,191.615 120.454,191.042 120.395 C 190.469 120.335,190.000 120.222,190.000 120.143 C 190.000 120.064,189.887 120.000,189.750 120.000 C 189.612 120.000,189.500 119.925,189.500 119.833 C 189.500 119.742,189.275 119.667,189.000 119.667 C 188.725 119.667,188.500 119.592,188.500 119.500 C 188.500 119.408,188.387 119.333,188.250 119.333 C 188.112 119.333,188.000 119.267,188.000 119.185 C 188.000 119.104,187.737 118.988,187.417 118.928 C 187.096 118.867,186.833 118.747,186.833 118.659 C 186.833 118.572,186.700 118.500,186.537 118.500 C 186.374 118.500,186.132 118.350,186.000 118.167 C 185.868 117.983,185.673 117.833,185.567 117.833 C 185.461 117.833,185.281 117.721,185.167 117.583 C 185.053 117.446,184.835 117.333,184.683 117.333 C 184.531 117.333,184.299 117.183,184.167 117.000 C 184.035 116.817,183.865 116.667,183.789 116.667 C 183.668 116.667,183.195 116.271,182.606 115.679 C 182.502 115.574,182.160 115.247,181.847 114.953 C 181.534 114.658,181.121 114.237,180.930 114.017 C 180.739 113.797,180.415 113.445,180.208 113.233 C 180.002 113.022,179.833 112.802,179.833 112.746 C 179.833 112.689,179.740 112.538,179.625 112.411 C 179.148 111.879,179.000 111.673,179.000 111.544 C 179.000 111.469,178.850 111.299,178.667 111.167 C 178.483 111.035,178.333 110.793,178.333 110.630 C 178.333 110.467,178.260 110.333,178.170 110.333 C 178.080 110.333,177.959 110.146,177.902 109.917 C 177.844 109.688,177.730 109.500,177.649 109.500 C 177.567 109.500,177.500 109.350,177.500 109.167 C 177.500 108.983,177.425 108.833,177.333 108.833 C 177.242 108.833,177.167 108.721,177.167 108.583 C 177.167 108.446,177.092 108.333,177.000 108.333 C 176.908 108.333,176.833 108.183,176.833 108.000 C 176.833 107.817,176.765 107.667,176.681 107.667 C 176.598 107.667,176.479 107.367,176.417 107.001 C 176.355 106.635,176.236 106.293,176.152 106.241 C 176.068 106.189,176.000 105.964,176.000 105.740 C 176.000 105.516,175.925 105.333,175.833 105.333 C 175.742 105.333,175.667 105.108,175.667 104.833 C 175.667 104.558,175.592 104.333,175.500 104.333 C 175.408 104.333,175.333 104.146,175.333 103.917 C 175.333 103.688,175.263 103.500,175.178 103.500 C 175.093 103.500,174.971 102.900,174.907 102.167 C 174.843 101.433,174.725 100.833,174.645 100.833 C 174.565 100.833,174.500 100.238,174.500 99.510 C 174.500 98.782,174.425 98.140,174.333 98.083 C 174.238 98.024,174.167 97.165,174.167 96.073 C 174.167 94.913,174.232 94.167,174.333 94.167 C 174.430 94.167,174.500 93.639,174.500 92.917 C 174.500 92.229,174.565 91.667,174.645 91.667 C 174.725 91.667,174.843 91.067,174.907 90.333 C 174.971 89.600,175.093 89.000,175.178 89.000 C 175.263 89.000,175.333 88.817,175.333 88.593 C 175.333 88.369,175.408 88.140,175.500 88.083 C 175.592 88.027,175.667 87.797,175.667 87.573 C 175.667 87.350,175.742 87.167,175.833 87.167 C 175.925 87.167,176.000 87.025,176.000 86.852 C 176.000 86.680,176.112 86.323,176.249 86.061 C 176.386 85.798,176.498 85.415,176.499 85.208 C 176.500 85.002,176.575 84.833,176.667 84.833 C 176.758 84.833,176.833 84.683,176.833 84.500 C 176.833 84.317,176.908 84.167,177.000 84.167 C 177.092 84.167,177.167 84.054,177.167 83.917 C 177.167 83.779,177.242 83.667,177.333 83.667 C 177.425 83.667,177.500 83.517,177.500 83.333 C 177.500 83.150,177.574 83.000,177.663 83.000 C 177.753 83.000,177.874 82.813,177.932 82.583 C 177.989 82.354,178.103 82.167,178.185 82.167 C 178.266 82.167,178.333 82.033,178.333 81.870 C 178.333 81.707,178.483 81.465,178.667 81.333 C 178.850 81.201,179.000 81.015,179.000 80.920 C 179.000 80.825,179.188 80.544,179.417 80.297 C 179.646 80.050,179.833 79.737,179.833 79.602 C 179.833 79.467,179.983 79.308,180.167 79.250 C 180.350 79.192,180.500 79.087,180.500 79.016 C 180.500 78.789,183.890 75.500,184.124 75.500 C 184.199 75.500,184.368 75.350,184.500 75.167 C 184.632 74.983,184.876 74.833,185.042 74.833 C 185.208 74.833,185.387 74.721,185.440 74.583 C 185.492 74.446,185.661 74.333,185.814 74.333 C 185.968 74.333,186.201 74.183,186.333 74.000 C 186.465 73.817,186.670 73.667,186.787 73.667 C 186.904 73.667,187.000 73.592,187.000 73.500 C 187.000 73.408,187.112 73.333,187.249 73.333 C 187.596 73.333,188.833 72.782,188.833 72.627 C 188.833 72.557,188.983 72.500,189.167 72.500 C 189.350 72.500,189.500 72.425,189.500 72.333 C 189.500 72.242,189.688 72.167,189.917 72.167 C 190.146 72.167,190.333 72.098,190.333 72.013 C 190.333 71.929,190.821 71.808,191.417 71.744 C 192.012 71.680,192.500 71.562,192.500 71.481 C 192.500 71.400,192.838 71.333,193.250 71.333 C 193.662 71.333,194.000 71.258,194.000 71.167 C 194.000 71.061,195.222 71.000,197.333 71.000 C 199.444 71.000,200.667 71.061,200.667 71.167 C 200.667 71.258,201.004 71.333,201.417 71.333 C 201.829 71.333,202.167 71.403,202.167 71.488 C 202.167 71.573,202.579 71.694,203.083 71.757 C 203.588 71.820,204.000 71.938,204.000 72.019 C 204.000 72.100,204.188 72.167,204.417 72.167 C 204.646 72.167,204.833 72.242,204.833 72.333 C 204.833 72.425,204.983 72.500,205.167 72.500 C 205.350 72.500,205.500 72.575,205.500 72.667 C 205.500 72.758,205.688 72.833,205.917 72.833 C 206.146 72.833,206.333 72.894,206.333 72.968 C 206.333 73.042,206.652 73.242,207.042 73.412 C 207.431 73.583,207.871 73.860,208.020 74.028 C 208.168 74.196,208.356 74.333,208.438 74.333 C 208.520 74.333,208.789 74.521,209.036 74.750 C 209.283 74.979,209.596 75.167,209.731 75.167 C 209.867 75.167,210.020 75.300,210.072 75.463 C 210.123 75.626,210.326 75.869,210.522 76.004 C 211.057 76.372,212.000 77.383,212.000 77.588 C 212.000 77.644,212.107 77.798,212.238 77.929 C 212.508 78.198,213.500 78.255,213.500 78.000 C 213.500 77.908,213.645 77.833,213.821 77.833 C 213.998 77.833,214.290 77.646,214.470 77.417 C 214.650 77.188,214.884 77.000,214.990 77.000 C 215.095 77.000,215.369 76.813,215.598 76.583 C 215.828 76.354,216.108 76.167,216.221 76.167 C 216.334 76.167,216.535 76.017,216.667 75.833 C 216.799 75.650,216.975 75.500,217.059 75.500 C 217.143 75.500,217.332 75.362,217.480 75.193 C 217.629 75.023,218.028 74.754,218.369 74.593 C 218.709 74.433,219.033 74.158,219.088 73.984 C 219.144 73.809,219.259 73.667,219.345 73.667 C 219.797 73.667,219.415 72.861,218.583 72.062 C 218.079 71.578,217.667 71.103,217.667 71.007 C 217.667 70.784,217.053 70.167,216.831 70.167 C 216.737 70.167,216.338 69.829,215.942 69.417 C 215.547 69.004,215.104 68.667,214.956 68.667 C 214.809 68.667,214.644 68.524,214.588 68.349 C 214.498 68.064,213.589 67.500,213.220 67.500 C 213.139 67.500,212.965 67.350,212.833 67.167 C 212.701 66.983,212.460 66.833,212.297 66.833 C 212.133 66.833,212.000 66.776,212.000 66.706 C 212.000 66.551,210.763 66.000,210.416 66.000 C 210.279 66.000,210.167 65.925,210.167 65.833 C 210.167 65.742,209.979 65.667,209.750 65.667 C 209.521 65.667,209.333 65.592,209.333 65.500 C 209.333 65.408,209.108 65.333,208.833 65.333 C 208.558 65.333,208.333 65.258,208.333 65.167 C 208.333 65.075,208.152 65.000,207.931 65.000 C 207.709 65.000,207.503 64.926,207.472 64.835 C 207.442 64.744,206.948 64.621,206.375 64.561 C 205.802 64.501,205.333 64.388,205.333 64.310 C 205.333 64.231,204.996 64.167,204.583 64.167 C 204.171 64.167,203.833 64.092,203.833 64.000 C 203.833 63.908,203.458 63.833,203.000 63.833 C 202.542 63.833,202.167 63.758,202.167 63.667 C 202.167 63.559,200.444 63.500,197.333 63.500 C 194.222 63.500,192.500 63.559,192.500 63.667 M7.667 96.250 L 7.667 127.167 11.583 127.167 L 15.500 127.167 15.500 113.333 L 15.500 99.500 29.917 99.500 L 44.333 99.500 44.333 95.917 L 44.333 92.333 29.917 92.333 L 15.500 92.333 15.500 82.417 L 15.500 72.500 31.000 72.500 L 46.500 72.500 46.500 68.917 L 46.500 65.333 27.083 65.333 L 7.667 65.333 7.667 96.250 M65.667 96.250 L 65.667 127.167 69.583 127.167 L 73.500 127.167 73.500 96.250 L 73.500 65.333 69.583 65.333 L 65.667 65.333 65.667 96.250 M96.333 96.250 L 96.333 127.167 100.250 127.167 L 104.167 127.167 104.167 101.917 C 104.167 85.194,104.223 76.667,104.333 76.667 C 104.425 76.667,104.500 76.817,104.500 77.000 C 104.500 77.183,104.570 77.333,104.655 77.333 C 104.741 77.333,104.864 77.502,104.929 77.708 C 104.994 77.915,105.187 78.205,105.357 78.353 C 105.527 78.501,105.667 78.694,105.667 78.781 C 105.667 78.868,105.854 79.103,106.083 79.302 C 106.313 79.501,106.500 79.798,106.500 79.962 C 106.500 80.126,106.650 80.368,106.833 80.500 C 107.017 80.632,107.167 80.820,107.167 80.917 C 107.167 81.014,107.317 81.201,107.500 81.333 C 107.683 81.465,107.833 81.698,107.833 81.850 C 107.833 82.002,107.946 82.219,108.083 82.333 C 108.221 82.447,108.333 82.614,108.333 82.704 C 108.333 82.793,108.548 83.067,108.810 83.311 C 109.072 83.556,109.340 83.924,109.405 84.128 C 109.469 84.333,109.592 84.500,109.678 84.500 C 109.763 84.500,109.833 84.598,109.833 84.719 C 109.833 84.839,109.983 85.098,110.167 85.295 C 110.350 85.492,110.500 85.699,110.500 85.755 C 110.500 85.811,110.594 85.962,110.708 86.089 C 111.185 86.621,111.333 86.827,111.333 86.956 C 111.333 87.031,111.483 87.201,111.667 87.333 C 111.850 87.465,112.000 87.707,112.000 87.870 C 112.000 88.033,112.059 88.167,112.131 88.167 C 112.203 88.167,112.404 88.410,112.577 88.708 C 112.751 89.006,113.030 89.371,113.196 89.520 C 113.363 89.668,113.500 89.874,113.500 89.978 C 113.500 90.082,113.561 90.167,113.636 90.167 C 113.710 90.167,113.898 90.410,114.051 90.708 C 114.447 91.475,114.695 91.840,115.125 92.289 C 115.331 92.505,115.500 92.763,115.500 92.863 C 115.500 92.963,115.632 93.166,115.793 93.314 C 115.954 93.462,116.192 93.790,116.321 94.042 C 116.450 94.294,116.619 94.500,116.695 94.500 C 116.771 94.500,116.833 94.609,116.833 94.742 C 116.833 94.876,117.021 95.172,117.250 95.402 C 117.479 95.631,117.667 95.880,117.667 95.956 C 117.667 96.031,117.817 96.201,118.000 96.333 C 118.183 96.465,118.333 96.698,118.333 96.850 C 118.333 97.002,118.446 97.219,118.583 97.333 C 118.721 97.447,118.833 97.614,118.833 97.704 C 118.833 97.793,119.048 98.067,119.310 98.311 C 119.572 98.556,119.840 98.924,119.905 99.128 C 119.969 99.333,120.092 99.500,120.178 99.500 C 120.263 99.500,120.333 99.598,120.333 99.719 C 120.333 99.839,120.483 100.098,120.667 100.295 C 120.850 100.492,121.000 100.731,121.000 100.826 C 121.000 100.922,121.070 101.000,121.155 101.000 C 121.241 101.000,121.356 101.141,121.411 101.314 C 121.465 101.487,121.733 101.861,122.005 102.146 C 122.277 102.431,122.500 102.749,122.500 102.854 C 122.500 102.959,122.639 103.166,122.809 103.314 C 122.980 103.462,123.172 103.752,123.237 103.958 C 123.303 104.165,123.426 104.333,123.511 104.333 C 123.597 104.333,123.667 104.435,123.667 104.559 C 123.667 104.683,123.880 104.965,124.141 105.184 C 124.402 105.404,124.666 105.790,124.728 106.042 C 124.789 106.294,124.913 106.500,125.003 106.500 C 125.093 106.500,125.167 106.596,125.167 106.713 C 125.167 106.830,125.317 107.035,125.500 107.167 C 125.683 107.299,125.833 107.485,125.833 107.580 C 125.833 107.675,126.021 107.956,126.250 108.203 C 126.479 108.450,126.667 108.751,126.667 108.873 C 126.667 108.994,126.817 109.201,127.000 109.333 C 127.183 109.465,127.333 109.670,127.333 109.787 C 127.333 109.904,127.407 110.000,127.497 110.000 C 127.587 110.000,127.707 110.185,127.764 110.411 C 127.820 110.637,128.084 110.994,128.349 111.203 C 128.614 111.412,128.831 111.715,128.832 111.875 C 128.833 112.035,128.903 112.167,128.989 112.167 C 129.074 112.167,129.197 112.335,129.263 112.542 C 129.328 112.748,129.520 113.038,129.691 113.186 C 129.861 113.334,130.000 113.527,130.000 113.614 C 130.000 113.702,130.188 113.936,130.417 114.136 C 130.646 114.335,130.833 114.632,130.833 114.795 C 130.833 114.959,130.983 115.201,131.167 115.333 C 131.350 115.465,131.500 115.653,131.500 115.750 C 131.500 115.847,131.650 116.035,131.833 116.167 C 132.017 116.299,132.167 116.543,132.167 116.709 C 132.167 116.875,132.279 117.054,132.417 117.106 C 132.554 117.159,132.667 117.314,132.667 117.451 C 132.667 117.588,132.881 117.900,133.143 118.145 C 133.405 118.390,133.673 118.757,133.738 118.962 C 133.803 119.166,133.926 119.333,134.011 119.333 C 134.097 119.333,134.167 119.445,134.167 119.582 C 134.167 119.719,134.317 119.924,134.500 120.039 C 134.683 120.153,134.833 120.347,134.833 120.469 C 134.833 120.591,134.927 120.795,135.042 120.923 C 135.519 121.455,135.667 121.660,135.667 121.790 C 135.667 121.865,135.817 122.035,136.000 122.167 C 136.183 122.299,136.333 122.467,136.333 122.540 C 136.333 122.739,137.201 124.042,137.539 124.353 C 137.701 124.501,137.833 124.707,137.833 124.811 C 137.833 124.915,137.894 125.000,137.969 125.000 C 138.044 125.000,138.231 125.244,138.385 125.542 C 138.728 126.206,139.021 126.668,139.280 126.951 C 139.432 127.118,140.604 127.167,144.488 127.167 L 149.500 127.167 149.500 96.250 L 149.500 65.333 145.417 65.333 L 141.333 65.333 141.323 90.458 C 141.313 113.719,141.292 115.543,141.042 115.042 C 140.894 114.744,140.711 114.500,140.636 114.500 C 140.561 114.500,140.500 114.422,140.500 114.326 C 140.500 114.230,140.313 113.964,140.083 113.735 C 139.854 113.506,139.667 113.226,139.667 113.113 C 139.667 112.999,139.517 112.799,139.333 112.667 C 139.150 112.535,139.000 112.321,139.000 112.191 C 139.000 112.062,138.861 111.834,138.691 111.686 C 138.520 111.538,138.328 111.248,138.263 111.042 C 138.197 110.835,138.074 110.667,137.989 110.667 C 137.903 110.667,137.833 110.563,137.833 110.435 C 137.833 110.308,137.609 110.027,137.335 109.810 C 137.061 109.594,136.836 109.295,136.835 109.145 C 136.834 108.996,136.721 108.781,136.583 108.667 C 136.446 108.553,136.333 108.372,136.333 108.266 C 136.333 108.160,136.183 107.965,136.000 107.833 C 135.817 107.701,135.667 107.515,135.667 107.420 C 135.667 107.325,135.479 107.044,135.250 106.797 C 135.021 106.550,134.833 106.249,134.833 106.127 C 134.833 106.006,134.683 105.799,134.500 105.667 C 134.317 105.535,134.167 105.330,134.167 105.213 C 134.167 105.096,134.101 105.000,134.020 105.000 C 133.940 105.000,133.783 104.780,133.672 104.512 C 133.560 104.243,133.289 103.888,133.068 103.722 C 132.847 103.557,132.667 103.316,132.667 103.188 C 132.667 103.060,132.527 102.834,132.357 102.686 C 132.187 102.538,131.994 102.248,131.929 102.042 C 131.864 101.835,131.741 101.667,131.655 101.667 C 131.570 101.667,131.500 101.565,131.500 101.441 C 131.500 101.317,131.286 101.035,131.025 100.816 C 130.764 100.596,130.500 100.210,130.439 99.958 C 130.377 99.706,130.253 99.500,130.163 99.500 C 130.074 99.500,130.000 99.404,130.000 99.287 C 130.000 99.170,129.850 98.965,129.667 98.833 C 129.483 98.701,129.333 98.508,129.333 98.404 C 129.333 98.300,129.146 98.013,128.917 97.766 C 128.688 97.518,128.500 97.224,128.500 97.112 C 128.500 96.999,128.350 96.799,128.167 96.667 C 127.983 96.535,127.833 96.330,127.833 96.213 C 127.833 96.096,127.760 96.000,127.670 96.000 C 127.580 96.000,127.459 95.812,127.402 95.583 C 127.344 95.353,127.080 94.983,126.815 94.760 C 126.550 94.537,126.333 94.238,126.333 94.094 C 126.333 93.951,126.263 93.833,126.178 93.833 C 126.092 93.833,125.969 93.665,125.904 93.458 C 125.839 93.252,125.665 92.971,125.517 92.833 C 125.369 92.696,125.142 92.377,125.012 92.125 C 124.883 91.873,124.715 91.667,124.639 91.667 C 124.562 91.667,124.500 91.572,124.500 91.457 C 124.500 91.341,124.313 91.044,124.083 90.797 C 123.854 90.550,123.667 90.286,123.667 90.211 C 123.667 90.135,123.517 89.965,123.333 89.833 C 123.150 89.701,123.000 89.469,123.000 89.317 C 123.000 89.165,122.888 88.947,122.750 88.833 C 122.612 88.719,122.500 88.553,122.500 88.463 C 122.500 88.374,122.286 88.100,122.023 87.855 C 121.761 87.610,121.494 87.243,121.429 87.038 C 121.364 86.834,121.241 86.667,121.155 86.667 C 121.070 86.667,121.000 86.568,121.000 86.448 C 121.000 86.328,120.850 86.069,120.667 85.872 C 120.483 85.675,120.333 85.468,120.333 85.412 C 120.333 85.356,120.240 85.205,120.125 85.077 C 119.648 84.545,119.500 84.340,119.500 84.210 C 119.500 84.135,119.350 83.965,119.167 83.833 C 118.983 83.701,118.833 83.460,118.833 83.297 C 118.833 83.133,118.775 83.000,118.703 83.000 C 118.631 83.000,118.430 82.756,118.256 82.458 C 118.082 82.160,117.804 81.795,117.637 81.647 C 117.470 81.499,117.333 81.293,117.333 81.189 C 117.333 81.085,117.272 81.000,117.198 81.000 C 117.123 81.000,116.936 80.756,116.782 80.458 C 116.386 79.692,116.138 79.327,115.708 78.877 C 115.502 78.661,115.333 78.392,115.333 78.279 C 115.333 78.166,115.183 77.965,115.000 77.833 C 114.817 77.701,114.667 77.476,114.667 77.333 C 114.667 77.190,114.517 76.965,114.333 76.833 C 114.150 76.701,114.000 76.531,114.000 76.456 C 114.000 76.327,113.852 76.121,113.375 75.589 C 113.260 75.462,113.167 75.293,113.167 75.215 C 113.167 75.137,113.017 74.965,112.833 74.833 C 112.650 74.701,112.500 74.460,112.500 74.297 C 112.500 74.133,112.442 74.000,112.371 74.000 C 112.300 74.000,112.101 73.737,111.928 73.417 C 111.756 73.096,111.551 72.833,111.474 72.833 C 111.397 72.833,111.333 72.725,111.333 72.593 C 111.333 72.460,111.195 72.254,111.026 72.134 C 110.857 72.015,110.586 71.635,110.424 71.292 C 110.261 70.948,110.062 70.667,109.981 70.667 C 109.900 70.667,109.833 70.571,109.833 70.453 C 109.833 70.336,109.683 70.132,109.500 70.000 C 109.317 69.868,109.167 69.637,109.167 69.487 C 109.167 69.336,108.979 69.073,108.750 68.900 C 108.521 68.728,108.333 68.483,108.333 68.355 C 108.333 68.227,108.194 68.001,108.024 67.853 C 107.854 67.705,107.661 67.415,107.596 67.208 C 107.531 67.002,107.408 66.833,107.322 66.833 C 107.237 66.833,107.167 66.739,107.167 66.624 C 107.167 66.509,106.902 66.171,106.578 65.874 L 105.989 65.333 101.161 65.333 L 96.333 65.333 96.333 96.250 M238.500 96.250 L 238.500 127.167 242.417 127.167 L 246.333 127.167 246.333 112.750 L 246.333 98.333 262.583 98.333 L 278.833 98.333 278.833 112.750 L 278.833 127.167 282.667 127.167 L 286.500 127.167 286.500 96.250 L 286.500 65.333 282.667 65.333 L 278.833 65.333 278.833 78.250 L 278.833 91.167 262.583 91.167 L 246.333 91.167 246.333 78.250 L 246.333 65.333 242.417 65.333 L 238.500 65.333 238.500 96.250 " stroke="none" fill="#9b9b9b" fill-rule="evenodd"></path><path id="path1" d="M313.333 19.083 C 313.333 19.221,313.408 19.333,313.500 19.333 C 313.592 19.333,313.667 19.477,313.667 19.653 C 313.667 19.828,313.723 19.997,313.792 20.028 C 313.860 20.058,314.210 20.665,314.568 21.375 C 314.926 22.085,315.282 22.667,315.359 22.667 C 315.437 22.667,315.500 22.780,315.500 22.918 C 315.500 23.206,316.353 24.888,316.542 24.972 C 316.610 25.003,316.667 25.165,316.667 25.333 C 316.667 25.501,316.760 25.672,316.875 25.713 C 316.990 25.754,317.026 25.849,316.956 25.924 C 316.885 26.000,316.739 25.972,316.631 25.864 C 316.390 25.624,314.833 25.599,314.833 25.836 C 314.833 26.056,315.174 26.646,315.542 27.065 C 315.702 27.247,315.833 27.454,315.833 27.524 C 315.833 27.594,316.008 27.827,316.222 28.040 C 316.436 28.254,316.808 28.765,317.049 29.176 C 317.289 29.586,317.620 30.071,317.785 30.253 C 318.340 30.867,319.000 31.810,319.000 31.987 C 319.000 32.084,319.150 32.258,319.333 32.372 C 319.890 32.720,319.720 32.817,318.460 32.868 C 316.830 32.934,316.845 33.095,318.662 34.986 C 319.490 35.847,320.167 36.598,320.167 36.655 C 320.167 36.712,320.572 37.187,321.068 37.712 C 321.564 38.236,321.905 38.706,321.826 38.755 C 321.547 38.927,321.906 39.405,323.693 41.236 C 324.996 42.572,325.415 43.097,325.206 43.131 C 324.231 43.294,324.167 43.337,324.167 43.837 C 324.167 44.110,324.230 44.333,324.307 44.333 C 324.384 44.333,324.589 44.596,324.762 44.917 C 324.934 45.237,325.134 45.500,325.205 45.500 C 325.275 45.500,325.333 45.585,325.333 45.689 C 325.333 45.793,325.470 45.999,325.637 46.147 C 325.804 46.295,326.082 46.660,326.256 46.958 C 326.667 47.662,327.382 47.631,329.292 46.825 C 330.115 46.477,330.475 46.351,331.917 45.904 C 332.742 45.648,333.488 45.377,333.575 45.303 C 333.662 45.228,333.906 45.167,334.117 45.167 C 334.327 45.167,334.500 45.092,334.500 45.000 C 334.500 44.908,334.651 44.833,334.836 44.833 C 335.020 44.833,335.301 44.766,335.461 44.684 C 335.620 44.601,336.387 44.335,337.167 44.091 C 337.946 43.848,338.733 43.582,338.917 43.499 C 339.100 43.416,340.075 43.078,341.083 42.748 C 342.092 42.417,343.067 42.080,343.250 41.998 C 343.433 41.917,344.340 41.596,345.265 41.285 L 346.947 40.721 348.432 41.031 C 349.248 41.201,350.254 41.418,350.667 41.513 C 351.079 41.608,351.717 41.747,352.083 41.822 C 352.450 41.896,353.494 42.124,354.402 42.327 C 355.311 42.530,356.286 42.657,356.569 42.608 C 357.358 42.471,358.397 42.248,360.583 41.748 C 361.683 41.497,362.902 41.225,363.292 41.145 C 363.681 41.065,364.319 40.928,364.708 40.841 C 365.098 40.753,365.792 40.604,366.250 40.511 C 369.692 39.806,370.584 39.557,370.636 39.284 C 370.667 39.128,370.611 39.000,370.512 39.000 C 370.414 39.000,370.333 38.928,370.333 38.839 C 370.333 38.751,370.113 38.331,369.844 37.906 C 369.574 37.482,369.231 36.710,369.080 36.192 C 368.929 35.674,368.737 35.120,368.653 34.961 C 368.569 34.801,368.500 34.494,368.500 34.278 C 368.500 34.061,368.369 33.729,368.208 33.540 C 367.612 32.835,367.399 32.567,366.916 31.917 C 366.643 31.550,366.306 31.137,366.167 31.000 C 366.027 30.863,365.691 30.450,365.419 30.083 C 365.147 29.717,364.754 29.245,364.546 29.034 C 364.337 28.824,364.166 28.599,364.166 28.534 C 364.165 28.470,363.940 28.177,363.666 27.884 C 363.391 27.591,363.167 27.304,363.167 27.247 C 363.167 27.190,363.073 27.049,362.958 26.934 C 362.844 26.820,362.525 26.438,362.250 26.087 C 361.975 25.736,361.581 25.276,361.375 25.065 C 361.169 24.854,361.000 24.622,361.000 24.549 C 361.000 24.476,360.705 24.094,360.344 23.699 C 359.983 23.304,359.663 22.906,359.633 22.815 C 359.602 22.723,359.460 22.693,359.316 22.748 C 359.062 22.845,359.143 23.481,359.541 24.500 C 360.070 25.855,359.876 25.891,358.614 24.672 C 358.047 24.125,357.411 23.544,357.200 23.380 C 356.989 23.217,356.038 22.317,355.088 21.381 C 353.374 19.693,353.356 19.681,352.888 19.906 C 352.629 20.031,351.641 20.171,350.692 20.216 C 348.713 20.311,348.643 20.350,348.831 21.250 C 349.082 22.455,350.233 27.017,350.527 27.971 C 350.620 28.276,350.658 28.564,350.610 28.612 C 350.515 28.707,348.779 28.323,347.167 27.851 C 346.219 27.574,343.285 26.809,342.833 26.722 C 342.604 26.678,342.267 26.579,342.083 26.503 C 341.523 26.270,338.525 25.500,338.179 25.500 C 338.000 25.500,337.812 25.433,337.761 25.352 C 337.711 25.270,337.425 25.165,337.127 25.117 C 336.828 25.070,336.321 24.954,336.000 24.860 C 335.256 24.643,332.265 23.847,331.500 23.663 C 331.179 23.585,330.654 23.445,330.333 23.351 C 329.386 23.074,326.451 22.309,326.000 22.222 C 325.771 22.178,325.433 22.083,325.250 22.011 C 324.714 21.800,323.837 21.557,322.500 21.247 C 321.813 21.088,321.100 20.898,320.917 20.825 C 320.733 20.752,320.396 20.654,320.167 20.607 C 319.938 20.561,319.487 20.450,319.167 20.360 C 318.846 20.270,318.031 20.046,317.356 19.862 C 316.680 19.678,316.047 19.447,315.947 19.347 C 315.848 19.248,315.594 19.167,315.383 19.167 C 315.173 19.167,315.000 19.092,315.000 19.000 C 315.000 18.908,314.625 18.833,314.167 18.833 C 313.537 18.833,313.333 18.894,313.333 19.083 M391.563 28.042 C 391.622 28.523,391.734 29.677,391.813 30.606 C 391.892 31.536,392.001 32.367,392.055 32.454 C 392.157 32.619,390.406 33.000,389.543 33.000 C 389.267 33.000,388.753 33.120,388.401 33.267 C 387.607 33.599,386.627 33.490,385.959 32.996 C 385.620 32.746,385.307 32.656,384.943 32.706 C 384.202 32.808,381.475 33.508,381.127 33.686 C 380.968 33.767,380.686 33.833,380.500 33.833 C 380.314 33.833,380.032 33.900,379.873 33.981 C 379.552 34.145,376.867 34.840,376.083 34.963 C 374.881 35.150,374.985 35.928,376.413 37.429 C 376.507 37.527,376.771 37.883,377.000 38.219 C 377.229 38.556,377.473 38.832,377.542 38.832 C 377.610 38.833,377.667 38.946,377.667 39.083 C 377.667 39.221,377.723 39.335,377.792 39.338 C 377.860 39.340,378.216 39.790,378.582 40.338 C 378.948 40.885,379.305 41.333,379.374 41.333 C 379.443 41.333,379.500 41.440,379.500 41.569 C 379.500 41.699,379.559 41.831,379.632 41.861 C 379.704 41.892,379.974 42.196,380.232 42.538 L 380.700 43.159 380.308 43.316 C 380.093 43.402,379.054 43.709,378.000 43.998 C 376.946 44.287,375.821 44.598,375.500 44.689 C 375.179 44.780,374.714 44.906,374.467 44.969 C 374.055 45.074,371.512 48.401,371.700 48.589 C 371.735 48.624,372.270 47.905,372.889 46.993 C 374.095 45.215,374.269 45.079,374.432 45.792 C 374.490 46.044,374.709 46.887,374.918 47.667 C 375.126 48.446,375.574 50.133,375.912 51.417 C 376.250 52.700,376.560 53.872,376.601 54.021 C 376.652 54.206,376.478 54.385,376.046 54.589 C 375.700 54.752,374.254 55.445,372.833 56.128 C 371.412 56.811,369.725 57.616,369.083 57.917 C 365.583 59.556,362.619 60.962,359.083 62.665 C 357.800 63.283,356.225 64.034,355.583 64.335 C 354.942 64.636,353.629 65.256,352.667 65.713 C 350.399 66.791,348.519 67.656,348.019 67.853 C 347.800 67.939,347.661 68.050,347.710 68.099 C 347.760 68.149,348.164 68.006,348.608 67.783 C 349.053 67.559,349.604 67.320,349.833 67.252 C 350.063 67.183,351.075 66.733,352.083 66.252 C 353.092 65.770,354.442 65.130,355.083 64.829 C 355.725 64.528,357.225 63.815,358.417 63.245 C 359.608 62.674,361.333 61.853,362.250 61.421 C 370.085 57.726,370.147 57.696,374.526 55.598 C 376.877 54.471,376.665 54.475,377.444 55.542 C 378.200 56.577,378.436 56.879,379.028 57.567 L 379.472 58.083 379.861 57.624 C 380.075 57.372,380.494 56.893,380.792 56.560 C 381.090 56.226,381.333 55.905,381.333 55.845 C 381.333 55.785,381.633 55.405,382.000 55.000 C 382.367 54.595,382.667 54.213,382.667 54.151 C 382.667 54.090,382.948 53.745,383.292 53.385 C 383.635 53.025,384.292 52.256,384.750 51.677 C 385.208 51.097,385.658 50.539,385.750 50.436 C 385.842 50.333,386.215 49.875,386.580 49.416 C 386.945 48.958,387.451 48.358,387.704 48.083 C 387.958 47.808,388.165 47.415,388.166 47.208 C 388.166 47.002,388.223 46.833,388.293 46.833 C 388.362 46.833,388.392 46.489,388.358 46.068 C 388.325 45.646,388.380 45.220,388.482 45.118 C 388.584 45.016,388.667 44.572,388.667 44.131 C 388.667 43.690,388.737 43.199,388.824 43.039 C 388.910 42.880,389.222 42.015,389.516 41.117 C 390.095 39.351,391.903 37.148,393.583 36.160 C 393.950 35.944,394.287 35.721,394.333 35.663 C 394.379 35.606,394.567 35.500,394.750 35.427 C 394.961 35.343,395.007 35.266,394.876 35.217 C 394.762 35.174,394.244 35.405,393.725 35.730 C 392.529 36.478,392.571 36.525,392.440 34.298 C 392.379 33.263,392.251 31.629,392.154 30.667 C 392.058 29.704,391.941 28.523,391.894 28.042 C 391.848 27.560,391.730 27.167,391.633 27.167 C 391.519 27.167,391.495 27.472,391.563 28.042 M385.762 33.019 C 385.825 33.121,386.195 33.346,386.585 33.518 C 387.039 33.719,387.326 33.967,387.383 34.207 C 387.481 34.619,387.955 36.405,388.464 38.280 C 388.884 39.825,388.368 47.194,387.843 47.161 C 387.792 47.158,387.229 46.764,386.591 46.286 C 385.954 45.808,384.454 44.929,383.258 44.333 L 381.083 43.250 378.213 39.421 C 375.951 36.402,375.395 35.562,375.590 35.453 C 375.726 35.377,376.568 35.126,377.460 34.896 C 378.353 34.665,379.646 34.325,380.333 34.139 C 381.021 33.952,381.846 33.740,382.167 33.666 C 382.488 33.592,383.275 33.382,383.917 33.199 C 385.307 32.803,385.610 32.773,385.762 33.019 M371.000 48.775 C 370.660 48.887,369.979 49.174,369.627 49.353 C 369.468 49.434,369.254 49.500,369.152 49.500 C 369.050 49.500,368.693 49.620,368.359 49.767 C 367.653 50.077,367.071 50.319,366.542 50.522 C 366.335 50.602,365.998 50.736,365.792 50.821 C 365.585 50.907,364.967 51.137,364.417 51.334 C 363.867 51.531,363.154 51.806,362.833 51.946 C 360.420 52.998,359.971 53.096,359.056 52.765 C 358.139 52.434,357.544 52.192,357.132 51.984 C 356.056 51.438,355.734 51.560,352.917 53.575 C 351.450 54.624,348.563 56.665,346.500 58.109 C 344.438 59.554,342.474 60.954,342.138 61.219 C 341.801 61.485,341.454 61.658,341.367 61.604 C 341.281 61.551,340.844 61.931,340.396 62.449 C 339.949 62.968,339.490 63.486,339.375 63.601 C 339.260 63.716,339.167 63.856,339.167 63.912 C 339.167 63.969,338.998 64.188,338.792 64.400 C 338.298 64.906,337.667 65.653,337.667 65.731 C 337.667 65.765,337.385 66.100,337.042 66.476 C 335.929 67.692,335.521 68.265,335.637 68.451 C 335.904 68.882,337.648 69.500,338.531 69.476 C 339.359 69.454,339.375 69.446,338.782 69.351 L 338.147 69.250 338.940 68.583 C 339.376 68.217,339.936 67.767,340.184 67.583 C 340.432 67.400,341.588 66.473,342.751 65.523 C 344.614 64.001,345.578 63.293,347.983 61.680 C 348.313 61.459,351.217 59.463,354.437 57.246 L 360.290 53.215 365.770 51.082 C 370.665 49.176,371.933 48.636,371.408 48.680 C 371.321 48.687,371.137 48.730,371.000 48.775 M346.667 68.333 C 346.460 68.467,346.474 68.495,346.750 68.495 C 346.933 68.495,347.196 68.422,347.333 68.333 C 347.540 68.200,347.526 68.172,347.250 68.172 C 347.067 68.172,346.804 68.244,346.667 68.333 M344.917 68.667 L 344.417 68.794 344.917 68.802 C 345.192 68.806,345.567 68.745,345.750 68.667 L 346.083 68.523 345.750 68.531 C 345.567 68.536,345.192 68.597,344.917 68.667 M341.842 69.018 C 339.192 69.208,338.992 69.320,341.500 69.210 C 342.646 69.159,343.733 69.059,343.917 68.986 C 344.295 68.837,344.387 68.835,341.842 69.018 " stroke="none" fill="#3a81c3" fill-rule="evenodd"></path><path id="path2" d="M391.833 27.320 C 391.833 27.404,392.058 27.523,392.333 27.583 C 392.608 27.644,392.833 27.746,392.833 27.811 C 392.833 27.875,393.246 28.151,393.749 28.423 C 394.253 28.694,394.666 28.973,394.666 29.042 C 394.666 29.110,394.742 29.167,394.833 29.167 C 395.317 29.167,394.870 28.692,393.996 28.279 C 393.448 28.020,393.000 27.739,393.000 27.654 C 393.000 27.569,392.850 27.500,392.667 27.500 C 392.483 27.500,392.333 27.425,392.333 27.333 C 392.333 27.242,392.221 27.167,392.083 27.167 C 391.946 27.167,391.833 27.236,391.833 27.320 M397.667 30.641 C 397.667 30.719,397.967 30.918,398.333 31.083 C 398.700 31.249,399.000 31.460,399.000 31.553 C 399.000 31.646,399.051 31.672,399.113 31.610 C 399.175 31.548,399.400 31.661,399.613 31.861 C 399.826 32.061,400.000 32.153,400.000 32.066 C 400.000 31.849,399.445 31.391,399.018 31.256 C 398.825 31.194,398.667 31.074,398.667 30.989 C 398.667 30.903,398.517 30.833,398.333 30.833 C 398.150 30.833,398.000 30.758,398.000 30.667 C 398.000 30.575,397.925 30.500,397.833 30.500 C 397.742 30.500,397.667 30.564,397.667 30.641 M398.554 33.225 C 398.295 33.441,397.971 33.660,397.833 33.712 C 397.654 33.780,397.679 33.811,397.922 33.820 C 398.108 33.827,398.368 33.683,398.500 33.500 C 398.632 33.317,398.836 33.167,398.953 33.167 C 399.071 33.167,399.167 33.092,399.167 33.000 C 399.167 32.757,399.078 32.789,398.554 33.225 M396.875 34.203 C 396.492 34.388,396.367 34.667,396.667 34.667 C 396.758 34.667,396.833 34.592,396.833 34.500 C 396.833 34.408,396.941 34.333,397.073 34.333 C 397.206 34.333,397.360 34.258,397.417 34.167 C 397.546 33.958,397.358 33.970,396.875 34.203 M395.417 35.113 C 394.935 35.513,394.932 35.523,395.333 35.413 C 395.831 35.275,396.255 34.908,396.058 34.786 C 395.980 34.738,395.692 34.885,395.417 35.113 " stroke="none" fill="#ff0000" fill-rule="evenodd"></path><path id="path3" d="M391.951 28.531 C 391.982 29.110,392.078 30.108,392.165 30.750 C 392.252 31.392,392.373 32.875,392.434 34.046 C 392.565 36.546,392.518 36.485,393.729 35.728 C 394.250 35.402,394.778 35.174,394.902 35.221 C 395.027 35.269,395.305 35.184,395.521 35.033 C 395.738 34.882,396.007 34.744,396.121 34.727 C 396.234 34.711,396.446 34.578,396.592 34.432 C 396.737 34.286,397.039 34.121,397.262 34.066 C 397.484 34.010,397.667 33.897,397.667 33.815 C 397.667 33.734,397.770 33.667,397.896 33.667 C 398.023 33.667,398.225 33.548,398.345 33.402 C 398.466 33.257,398.888 32.986,399.282 32.801 C 399.677 32.615,400.000 32.410,400.000 32.344 C 400.000 32.132,399.229 31.493,399.113 31.610 C 399.051 31.672,399.000 31.646,399.000 31.553 C 399.000 31.460,398.700 31.249,398.333 31.083 C 397.967 30.918,397.667 30.736,397.667 30.679 C 397.667 30.622,397.385 30.430,397.042 30.252 C 396.698 30.074,396.107 29.723,395.730 29.471 C 395.352 29.219,394.991 29.064,394.929 29.127 C 394.866 29.189,394.763 29.164,394.699 29.071 C 394.636 28.977,394.208 28.686,393.750 28.423 C 393.292 28.160,392.878 27.889,392.832 27.819 C 392.785 27.750,392.555 27.645,392.320 27.586 L 391.894 27.479 391.951 28.531 M383.917 33.199 C 383.275 33.382,382.488 33.592,382.167 33.666 C 381.846 33.740,381.021 33.952,380.333 34.139 C 379.646 34.325,378.353 34.665,377.460 34.896 C 376.568 35.126,375.726 35.377,375.590 35.453 C 375.395 35.562,375.951 36.402,378.213 39.421 L 381.083 43.250 383.258 44.333 C 384.454 44.929,385.954 45.808,386.591 46.286 C 387.229 46.764,387.792 47.158,387.843 47.161 C 388.368 47.194,388.884 39.825,388.464 38.280 C 387.955 36.405,387.481 34.619,387.383 34.207 C 387.326 33.967,387.039 33.719,386.585 33.518 C 386.195 33.346,385.825 33.121,385.762 33.019 C 385.610 32.773,385.307 32.803,383.917 33.199 M372.884 47.000 C 372.152 48.080,371.577 48.749,371.252 48.900 C 370.976 49.028,368.397 50.052,365.520 51.174 L 360.290 53.215 354.437 57.246 C 351.217 59.463,348.313 61.459,347.983 61.680 C 345.578 63.293,344.614 64.001,342.751 65.523 C 341.588 66.473,340.431 67.400,340.181 67.583 C 339.930 67.767,339.356 68.243,338.904 68.642 L 338.083 69.367 339.167 69.260 C 339.762 69.202,340.887 69.116,341.667 69.069 C 344.195 68.918,346.775 68.409,348.167 67.788 C 349.862 67.032,351.007 66.505,352.667 65.715 C 353.629 65.256,354.942 64.636,355.583 64.335 C 356.225 64.034,357.800 63.283,359.083 62.665 C 362.619 60.962,365.583 59.556,369.083 57.917 C 369.725 57.616,371.412 56.811,372.833 56.128 C 374.254 55.445,375.700 54.752,376.046 54.589 C 376.478 54.385,376.652 54.206,376.601 54.021 C 376.560 53.872,376.250 52.700,375.912 51.417 C 375.574 50.133,375.126 48.446,374.918 47.667 C 374.709 46.887,374.490 46.044,374.432 45.792 C 374.268 45.079,374.095 45.215,372.884 47.000 " stroke="none" fill="#f4ce27" fill-rule="evenodd"></path><path id="path4" d="" stroke="none" fill="#00ffff" fill-rule="evenodd"></path></g></svg>