<svg version="1.0" xmlns="http://www.w3.org/2000/svg" width="400.000000pt" height="224.000000pt" viewBox="0 0 400.000000 224.000000" preserveAspectRatio="xMidYMid meet">
    <g transform="translate(0.000000,224.000000) scale(0.100000,-0.100000)"
    fill="#9b9b9b" stroke="none">
        <path d="M244 2229 c-59 -17 -114 -93 -114 -156 0 -44 38 -110 78 -135 72 -44
        178 -18 223 56 27 44 25 123 -4 166 -39 60 -118 89 -183 69z"/>
        <path d="M954 1839 c-267 -17 -310 -42 -336 -200 -16 -102 -16 -442 1 -552 15
        -97 37 -140 89 -170 41 -24 201 -46 333 -47 l96 0 149 -116 149 -117 3 121 c3
        136 -5 123 82 136 48 8 96 39 119 77 57 94 63 573 10 746 -15 47 -69 89 -131
        102 -57 12 -323 31 -398 29 -25 0 -99 -4 -166 -9z m386 -160 c88 -6 149 -15
        156 -22 30 -33 43 -354 21 -517 l-12 -84 -35 -8 c-97 -21 -323 -30 -467 -19
        -207 17 -216 19 -225 61 -24 108 -17 545 9 571 9 9 204 25 328 27 44 1 145 -3
        225 -9z"/>
        <path d="M3124 1816 c-118 -30 -219 -102 -275 -195 -51 -85 -60 -116 -66 -238
        -7 -123 7 -204 49 -287 97 -191 318 -278 601 -235 71 11 180 45 237 74 l30 16
        0 99 0 99 -71 -30 c-90 -39 -184 -59 -274 -59 -115 0 -193 48 -245 151 -11 21
        -20 41 -20 44 0 3 142 5 316 5 l317 0 -5 108 c-6 131 -26 200 -81 283 -46 68
        -135 138 -205 160 -55 17 -248 20 -308 5z m251 -226 c36 -35 52 -71 57 -130
        l3 -35 -175 0 -175 0 3 39 c4 48 25 90 60 124 39 36 60 42 129 39 56 -3 67 -7
        98 -37z"/>
        <path d="M138 1313 c-3 -498 -3 -509 -25 -555 -19 -41 -58 -78 -97 -91 -9 -3
        77 -229 93 -249 10 -12 116 17 164 45 59 35 120 107 149 176 23 56 23 56 26
        619 l3 562 -155 0 -155 0 -3 -507z"/>
        <path d="M1753 1808 c3 -7 22 -53 42 -103 20 -49 65 -157 100 -240 34 -82 104
        -250 155 -372 l93 -223 116 0 116 0 64 153 c36 83 125 293 198 465 73 172 133
        317 133 323 0 6 -55 8 -146 7 l-145 -3 -40 -95 c-22 -52 -65 -156 -95 -231
        -30 -75 -61 -145 -69 -155 -12 -17 -14 -16 -23 16 -10 34 -106 294 -152 413
        l-23 57 -164 0 c-128 0 -164 -3 -160 -12z"/>
    </g>
</svg>
