<svg xmlns="http://www.w3.org/2000/svg" viewBox="0 0 99.04 20.21" width="99.04" height="20.21">
    <path fill="#9b9b9b" d="M17.72.14h-.26a1.4,1.4,0,0,0-1.2.68L9.55,11,2.75.82A1.4,1.4,0,0,0,1.54.14H1.29A1.31,1.31,0,0,0,0,1.44V18.91A1.26,1.26,0,0,0,1.26,20.2a1.28,1.28,0,0,0,1.31-1.29V5l5.78,8.69a1.34,1.34,0,0,0,1.12.65,1.3,1.3,0,0,0,1.1-.65l5.82-8.73v14a1.34,1.34,0,0,0,1.33,1.32A1.32,1.32,0,0,0,19,18.88V1.44A1.31,1.31,0,0,0,17.72.14Zm15.1,1A1.66,1.66,0,0,0,31.15,0a1.63,1.63,0,0,0-1.58,1.1L21.7,18.32a1.42,1.42,0,0,0-.17.67,1.22,1.22,0,0,0,1.21,1.22A1.29,1.29,0,0,0,24,19.33l2.15-4.87h10l2.19,4.83a1.4,1.4,0,0,0,1.28.93,1.27,1.27,0,0,0,1.27-1.27,1.7,1.7,0,0,0-.16-.65Zm-5.63,11,4-8.8,4,8.78Zm24.89-11A1.62,1.62,0,0,0,50.51,0H50.4a1.65,1.65,0,0,0-1.58,1.1L42.19,15.64s1.29,2.82,1.41,2.89l1.79-4.07h10l2.19,4.83a1.4,1.4,0,0,0,1.28.93,1.26,1.26,0,0,0,1.26-1.27,1.66,1.66,0,0,0-.15-.65Zm-5.64,11,4-8.8,4.07,8.79ZM78.78,6.2a5.57,5.57,0,0,0-1.56-4,7.88,7.88,0,0,0-5.67-2H64.28A1.33,1.33,0,0,0,63,1.55V18.88a1.3,1.3,0,0,0,.4.94,1.24,1.24,0,0,0,.9.39,1.33,1.33,0,0,0,1.32-1.33V12.49h5.24l5.41,7a1.5,1.5,0,0,0,1.21.67,1.36,1.36,0,0,0,1.32-1.3,1.35,1.35,0,0,0-.41-.93l-4.7-5.93C76.92,11.34,78.78,9.21,78.78,6.2Zm-7.43,3.92H65.6V2.68h5.78c3,0,4.75,1.37,4.75,3.66S74.26,10.12,71.35,10.12Zm27.34,7.82L91.4,9l6.78-6.72a1.27,1.27,0,0,0,.42-.93A1.33,1.33,0,0,0,97.33.08a1.43,1.43,0,0,0-1,.46l-10.7,11.1V1.41a1.31,1.31,0,1,0-2.62,0V18.88a1.31,1.31,0,1,0,2.62,0v-4.2l3.92-3.93,7.13,8.87a1.26,1.26,0,0,0,1.06.59A1.34,1.34,0,0,0,99,18.88,1.45,1.45,0,0,0,98.69,17.94Z"/>
</svg>
