<svg version="1.0" xmlns="http://www.w3.org/2000/svg"
 width="583pt" height="154pt" viewBox="0 0 583 154"
 preserveAspectRatio="xMidYMid meet">
<g transform="translate(0,154) scale(0.1,-0.1)"
fill="#9b9b9b" stroke="none">

<g transform="translate(1505,1505) scale(0.35,-0.35) rotate(90)"
fill="#9b9b9b" stroke="none">
<path d="M1065 3405 c-249 -46 -426 -210 -492 -455 -17 -60 -18 -137 -18 -955
0 -987 -3 -942 67 -1084 47 -97 161 -211 259 -260 155 -78 126 -76 1094 -76
781 0 867 2 935 17 235 55 413 233 468 468 15 68 17 154 17 945 l0 870 -23 80
c-35 126 -67 181 -162 275 -95 95 -152 130 -267 163 -77 21 -84 22 -943 24
-679 1 -880 -1 -935 -12z m1119 -390 c404 -84 727 -406 811 -807 12 -55 15
-169 15 -557 l0 -487 -26 -52 c-29 -59 -79 -107 -141 -134 -41 -18 -70 -19
-550 -16 -585 4 -575 3 -778 103 -312 154 -526 452 -574 800 -52 381 133 785
458 997 134 87 285 145 436 167 86 12 257 5 349 -14z"/>
<path d="M1821 2789 c-177 -35 -358 -143 -471 -282 -59 -71 -133 -215 -156
-302 -9 -33 -18 -110 -21 -171 -12 -246 71 -452 249 -620 447 -423 1171 -213
1334 386 27 99 25 301 -4 403 -83 292 -305 508 -595 577 -88 21 -252 26 -336
9z"/>
<path d="M2705 1330 c-60 -24 -89 -102 -61 -162 54 -113 224 -75 226 50 1 83
-89 144 -165 112z"/>
</g>

<path d="M2130 785 l0 -375 70 0 70 0 0 375 0 375 -70 0 -70 0 0 -375z"/>
<path d="M5290 1011 l0 -150 -47 27 c-110 62 -250 17 -308 -99 -51 -100 -40
-232 24 -310 76 -92 237 -107 324 -31 16 14 17 13 17 -11 0 -26 1 -27 65 -27
l65 0 0 375 0 375 -70 0 -70 0 0 -149z m-35 -254 c89 -89 32 -237 -92 -237
-35 0 -50 6 -79 33 -31 28 -37 42 -41 84 -10 95 40 152 131 153 41 0 53 -5 81
-33z"/>
<path d="M3855 1140 c-186 -27 -305 -173 -305 -375 0 -152 73 -270 205 -332
55 -26 69 -28 175 -27 122 0 196 19 254 65 26 20 26 21 26 175 l0 154 -153 0
-153 0 1 -57 2 -58 81 -3 82 -3 0 -55 c0 -54 -1 -55 -37 -72 -60 -26 -168 -22
-220 7 -106 61 -143 213 -82 338 55 114 223 146 337 63 l38 -27 49 43 50 42
-20 22 c-66 73 -211 116 -330 100z"/>
<path d="M1540 1139 c0 -2 -1 -167 -3 -367 l-2 -362 73 0 72 0 0 125 0 124
100 0 c141 0 209 31 252 115 44 87 32 214 -28 284 -55 64 -93 75 -291 80 -95
2 -173 3 -173 1z m293 -140 c90 -25 104 -159 20 -198 -15 -8 -61 -16 -100 -19
l-73 -5 0 117 0 116 58 0 c31 0 74 -5 95 -11z"/>
<path d="M4692 1117 c-32 -34 -30 -89 4 -116 56 -44 134 -11 134 58 0 73 -89
110 -138 58z"/>
<path d="M2522 905 c-60 -19 -108 -59 -136 -113 -70 -138 -28 -303 93 -365 86
-43 197 -35 240 17 19 23 33 20 29 -6 -3 -28 -2 -28 67 -28 l55 0 0 250 0 250
-65 0 c-63 0 -65 -1 -65 -25 0 -29 -7 -31 -31 -9 -22 20 -86 43 -119 43 -14 0
-44 -6 -68 -14z m158 -130 c82 -42 80 -196 -2 -241 -84 -47 -188 20 -188 121
0 103 100 166 190 120z"/>
<path d="M3220 908 c-19 -5 -49 -21 -67 -34 -17 -13 -33 -24 -35 -24 -2 0 -4
12 -3 28 0 27 -1 27 -67 30 l-68 3 0 -251 0 -250 70 0 70 0 0 150 c0 163 8
195 52 219 13 7 44 11 68 9 34 -2 48 -9 64 -31 19 -26 21 -44 23 -190 l3 -162
65 -3 65 -3 0 178 c0 98 -5 195 -11 216 -15 56 -61 103 -113 116 -52 13 -68
13 -116 -1z"/>
<path d="M4556 905 c-21 -7 -51 -26 -67 -41 l-29 -28 0 37 0 37 -65 0 -65 0 0
-250 0 -250 65 0 65 0 0 133 c0 113 3 137 20 164 23 38 67 63 110 63 l30 0 0
65 c0 36 0 68 1 73 0 13 -25 12 -65 -3z"/>
<path d="M4680 660 l0 -250 70 0 70 0 0 250 0 250 -70 0 -70 0 0 -250z"/>
</g>
</svg>
