<svg xmlns="http://www.w3.org/2000/svg" viewBox="0 0 328.7 134.6" width="328.7" height="134.6"><title>UMass Wordmark Vertical</title><path d="M90,46.4c-6.6.5-9.1,2-9.6,6.5s-.6,7.7-.6,17.8v9c0,13-2,22.3-8.3,29s-12.4,7.6-19.7,7.6-12.7-1.6-17.6-5.3c-6.5-5-9.6-13.3-9.6-26.1V57.5c0-9.9-.9-10.3-9.6-11.1v-3H43.5v3c-8.7.6-9.6,1.2-9.6,11.1v25c0,17.6,7,27.7,20.7,27.7,15.8,0,20.7-13.1,20.7-31.3V70.7c0-10.1-.3-14.7-.8-18.1S71.6,47,63.9,46.4v-3H90Z" transform="translate(-15 -41.7)" fill="#9b9b9b"/><path d="M152.6,114.7v-3c8.9-.9,9.3-1.5,9.2-13.1l-.3-44.8h-.4L134.3,114h-2.2L107.5,55.3h-.3l-1.6,31.3c-.4,9-.4,13.9-.3,18.3s2.8,6,10.1,6.8v3H89.8v-3c6.3-.8,8.5-2,9.3-6.6s1.2-8.7,2.1-20.1l1.5-22.9c1-14.2.5-14.7-9.5-15.7v-3h18l25,54.9,25.4-54.9h18.7v3c-9.7.9-10.5,1.1-10.1,12.4l1.1,39.8c.3,11.6.6,12.2,10.2,13.1v3Z" transform="translate(-15 -41.7)" fill="#9b9b9b"/><path d="M225.9,114.7v-3c6.9-.9,7.9-1.8,6.5-6.1s-3.6-10.2-6-16.9H203c-1.8,5-3.4,9.6-4.9,14.2-2.4,6.9-1.4,8,6.8,8.8v3H181.1v-3c6.9-1,8.5-1.7,12.3-11.3l22.7-57.7,3.5-1c6.8,18.9,14.1,39.8,21.1,58.9,3.6,9.4,5,10.4,12.1,11.1v3ZM215.2,56h-.3c-3.5,9.4-7,19-10.3,28h20.2Z" transform="translate(-15 -41.7)" fill="#9b9b9b"/><path d="M290.4,60c-2-7-4.9-14.6-14.4-14.6s-12.2,6.2-12.2,12.1c0,8,5.2,11.8,13.9,16.3s19,9.5,19,21.8-9.8,20.8-24.4,20.8a36.2,36.2,0,0,1-10.7-1.7,25.5,25.5,0,0,1-5.4-2.3c-.9-2.3-2.3-11.7-3-17l3.2-.8c1.8,6.7,6.7,17.8,18,17.8,8.3,0,13.2-5.1,13.2-13.1s-6-12-14.3-16.4-18.1-9.2-18.1-21.6c0-10.6,8.5-19.6,22.6-19.6a46.4,46.4,0,0,1,13.9,2.5c.4,4,1,8.3,1.8,15.2Z" transform="translate(-15 -41.7)" fill="#9b9b9b"/><path d="M336.5,60c-1.9-7-4.8-14.6-14.3-14.6S310,51.6,310,57.5c0,8,5.2,11.8,13.9,16.3s19,9.5,19,21.8-9.8,20.8-24.4,20.8a36.2,36.2,0,0,1-10.7-1.7,25.5,25.5,0,0,1-5.4-2.3c-.9-2.3-2.3-11.7-3-17l3.2-.8c1.8,6.7,6.7,17.8,18,17.8,8.3,0,13.2-5.1,13.2-13.1s-6-12-14.3-16.4-18.1-9.2-18.1-21.6c0-10.6,8.5-19.6,22.6-19.6a46.4,46.4,0,0,1,13.9,2.5c.4,4,1,8.3,1.8,15.2Z" transform="translate(-15 -41.7)" fill="#9b9b9b"/><path d="M50.5,175.2v-2.1c4.7-.6,5.4-1.2,4.4-4.1s-2.5-6.9-4.1-11.5H34.9c-1.2,3.4-2.3,6.5-3.2,9.6-1.7,4.7-1,5.5,4.6,6v2.1H20.1v-2.1c4.7-.7,5.7-1.1,8.4-7.7l15.4-39.1,2.3-.7c4.6,12.8,9.6,27,14.4,40,2.4,6.4,3.3,7,8.2,7.5v2.1Zm-7.3-39.9h-.1c-2.4,6.4-4.8,12.9-7,19H49.8Z" transform="translate(-15 -41.7)" fill="#9b9b9b"/><path d="M110.9,175.2v-2.1c6.1-.6,6.4-1,6.3-8.9l-.2-30.4h-.3L98.5,174.7H97L80.3,134.9h-.2L79,156.1c-.3,6.1-.3,9.4-.2,12.4s1.9,4.1,6.9,4.6v2.1H68.3v-2.1c4.3-.5,5.8-1.4,6.3-4.5A136,136,0,0,0,76,155l1.1-15.5c.7-9.7.3-10-6.5-10.7v-2.1H82.8l17,37.3L117,126.7h12.7v2.1c-6.6.6-7.1.8-6.9,8.4l.8,27c.2,7.9.4,8.3,6.9,8.9v2.1Z" transform="translate(-15 -41.7)" fill="#9b9b9b"/><path d="M184.9,128.8c-6.1.5-6.7.9-6.7,7.1V166c0,6.3.6,6.6,6.6,7.1v2.1H164.9v-2.1c6.3-.5,7-.8,7-7.1V151.1H146.5V166c0,6.2.5,6.6,6.7,7.1v2.1H133.6v-2.1c5.9-.5,6.5-.8,6.5-7.1V135.9c0-6.3-.6-6.6-6.7-7.1v-2.1h19.3v2.1c-5.7.5-6.2.9-6.2,7.1V148h25.4V135.9c0-6.2-.6-6.6-6.4-7.1v-2.1h19.4Z" transform="translate(-15 -41.7)" fill="#9b9b9b"/><path d="M226.1,163.4c-.5,2.5-1.9,9.5-2.6,11.8H187.6v-2.1c6.8-.5,7.3-1.1,7.3-7.2V136.3c0-6.7-.5-7-6.4-7.5v-2.1h33.3c0,1.9.3,7,.6,10.8l-2.2.3a20,20,0,0,0-2.4-6.4c-1-1.5-3-2.1-8.4-2.1h-5.7c-2.3,0-2.4.2-2.4,2.4v16.9h7c6.7,0,7.1-.5,8-5.5h2.2v14.3h-2.2c-.9-5.4-1.5-5.8-7.9-5.8h-7.1v14c0,3.5.4,5.1,1.8,6.1s4,.9,7.7.9c5.7,0,7.8-.6,9.4-2.5a21.5,21.5,0,0,0,3.7-7Z" transform="translate(-15 -41.7)" fill="#9b9b9b"/><path d="M270.7,175.8h-2.6c-5.6-.3-8.7-1.9-12.1-6.8s-5.3-8.3-7.5-11.9c-1.3-2.1-2.5-3-6.4-3h-2.4v11.9c0,6.3.7,6.7,6.6,7.2v2.1H226.7v-2.1c6.2-.5,6.8-.9,6.8-7.2v-30c0-6.3-.6-6.6-6.4-7.1v-2.1h18.5c5.4,0,9.1.7,11.9,2.6s4.9,5.3,4.9,9.7c0,6.4-3.9,10.4-9.4,12.8,1.2,2.4,4.4,7.4,6.6,10.8a59.6,59.6,0,0,0,6,7.7,10,10,0,0,0,5.4,3.5Zm-27.4-24.2c3.8,0,6.2-.6,8.1-2.1s4.1-5.2,4.1-9.3c0-8-5.3-11-11-11a8,8,0,0,0-4,.7c-.5.4-.8,1.3-.8,3.3v18.4Z" transform="translate(-15 -41.7)" fill="#9b9b9b"/><path d="M296.3,138.1c-1.3-4.8-3.3-9.9-9.7-9.9s-8.3,4.1-8.3,8.2,3.6,7.9,9.5,11,12.8,6.5,12.8,14.8-6.6,14.1-16.5,14.1a26.8,26.8,0,0,1-7.3-1.1,25.6,25.6,0,0,1-3.7-1.6c-.5-1.6-1.5-8-2-11.5l2.2-.6c1.2,4.6,4.5,12.1,12.2,12.1,5.6,0,9-3.5,9-8.9s-4.1-8.2-9.7-11.1-12.3-6.3-12.3-14.7,5.7-13.3,15.3-13.3a30.2,30.2,0,0,1,9.4,1.7c.3,2.7.7,5.6,1.3,10.3Z" transform="translate(-15 -41.7)" fill="#9b9b9b"/><path d="M341.5,138.3c-.8-3.6-1.5-5.4-2.4-6.6s-2.4-2.4-8-2.4h-5.3V166c0,5.9.6,6.6,7.7,7.1v2.1H312.1v-2.1c6.8-.5,7.4-1.2,7.4-7.1V129.3h-4.6c-6.2,0-7.7.6-8.7,2.4s-1.5,3.3-2.4,6.6h-2.1c.3-4.5.7-9.3.9-13.4h1.5c1,1.7,2,1.8,4.1,1.8h29.4a4,4,0,0,0,3.8-1.8h1.5c0,3.4.4,8.8.8,13.2Z" transform="translate(-15 -41.7)" fill="#9b9b9b"/></svg>
