<svg id="svg" version="1.1" xmlns="http://www.w3.org/2000/svg" xmlns:xlink="http://www.w3.org/1999/xlink" width="400" height="58.82352941176471" viewBox="0, 0, 400,58.82352941176471">
<g>
<path d="M11.500 0.158 C 11.500 0.254,11.350 0.333,11.167 0.333 C 10.983 0.333,10.833 0.400,10.833 0.481 C 10.833 0.562,10.676 0.669,10.483 0.719 C 10.291 0.770,10.178 0.883,10.232 0.971 C 10.287 1.059,10.144 1.178,9.916 1.235 C 9.688 1.292,9.520 1.432,9.543 1.545 C 9.565 1.658,9.452 1.740,9.292 1.727 C 9.131 1.714,9.000 1.775,9.000 1.862 C 9.000 1.949,8.933 1.979,8.852 1.928 C 8.771 1.878,8.602 1.963,8.477 2.117 C 8.284 2.355,8.285 2.376,8.484 2.256 C 8.637 2.164,8.680 2.178,8.607 2.295 C 8.545 2.395,8.234 2.562,7.914 2.667 C 7.595 2.773,7.333 2.928,7.333 3.013 C 7.333 3.097,7.218 3.167,7.078 3.167 C 6.938 3.167,6.780 3.279,6.727 3.417 C 6.674 3.554,6.524 3.667,6.394 3.667 C 6.263 3.667,6.113 3.779,6.060 3.917 C 6.008 4.054,5.894 4.167,5.808 4.167 C 5.723 4.167,5.562 4.241,5.451 4.331 C 4.795 4.866,4.195 5.286,3.807 5.483 C 3.563 5.606,3.139 5.912,2.864 6.163 C 2.590 6.414,2.241 6.667,2.089 6.725 C 1.932 6.785,1.864 6.915,1.932 7.025 C 2.008 7.147,1.979 7.173,1.852 7.095 C 1.602 6.941,1.132 7.309,1.278 7.545 C 1.343 7.651,1.303 7.668,1.174 7.588 C 1.058 7.516,0.915 7.523,0.856 7.604 C 0.798 7.684,0.600 7.833,0.417 7.934 C -0.015 8.171,-0.135 9.501,0.228 10.020 C 0.364 10.213,0.439 10.466,0.395 10.581 C 0.350 10.696,0.436 10.837,0.584 10.894 C 0.733 10.951,0.805 11.078,0.744 11.177 C 0.682 11.276,0.789 11.397,0.983 11.447 C 1.185 11.500,1.333 11.674,1.333 11.858 C 1.333 12.034,1.446 12.220,1.583 12.273 C 1.721 12.326,1.833 12.470,1.833 12.593 C 1.833 12.716,1.927 12.877,2.042 12.950 C 2.156 13.023,2.335 13.233,2.440 13.417 C 2.544 13.600,2.746 13.740,2.889 13.728 C 3.050 13.715,3.190 13.895,3.257 14.198 C 3.316 14.468,3.470 14.729,3.598 14.779 C 3.726 14.828,3.795 14.927,3.751 14.999 C 3.707 15.070,3.796 15.231,3.950 15.356 C 4.189 15.549,4.209 15.548,4.090 15.349 C 3.994 15.190,4.010 15.153,4.141 15.234 C 4.247 15.299,4.333 15.495,4.333 15.668 C 4.333 15.842,4.433 16.043,4.554 16.117 C 4.676 16.190,4.823 16.381,4.882 16.542 C 4.941 16.702,5.104 16.833,5.245 16.833 C 5.391 16.833,5.500 16.979,5.500 17.177 C 5.500 17.368,5.575 17.473,5.670 17.415 C 5.764 17.357,5.952 17.577,6.089 17.905 C 6.226 18.232,6.412 18.500,6.502 18.500 C 6.593 18.500,6.667 18.615,6.667 18.755 C 6.667 18.896,6.779 19.054,6.917 19.106 C 7.054 19.159,7.167 19.298,7.167 19.415 C 7.167 19.532,7.354 19.751,7.583 19.901 C 7.813 20.051,8.000 20.285,8.000 20.421 C 8.000 20.556,8.075 20.667,8.167 20.667 C 8.258 20.667,8.333 20.770,8.333 20.896 C 8.333 21.023,8.458 21.229,8.611 21.355 C 8.863 21.563,8.870 21.547,8.685 21.167 C 8.492 20.771,8.495 20.767,8.744 21.079 C 8.889 21.259,8.972 21.500,8.928 21.614 C 8.884 21.728,9.070 21.979,9.341 22.172 C 9.612 22.365,9.833 22.632,9.833 22.767 C 9.833 22.901,9.946 23.054,10.083 23.106 C 10.221 23.159,10.333 23.303,10.333 23.426 C 10.333 23.549,10.433 23.710,10.554 23.783 C 10.676 23.857,10.825 24.053,10.886 24.219 C 10.948 24.385,11.075 24.473,11.170 24.415 C 11.264 24.356,11.331 24.370,11.318 24.446 C 11.253 24.818,11.369 25.023,11.737 25.191 C 11.974 25.299,12.104 25.469,12.052 25.604 C 12.003 25.733,12.069 25.833,12.202 25.833 C 12.333 25.833,12.549 26.077,12.682 26.375 C 12.815 26.673,13.007 26.901,13.109 26.882 C 13.211 26.862,13.284 26.975,13.272 27.132 C 13.260 27.288,13.344 27.398,13.458 27.375 C 13.573 27.352,13.667 27.474,13.667 27.646 C 13.667 27.818,13.781 28.054,13.920 28.170 C 14.135 28.348,14.160 28.332,14.080 28.065 C 14.029 27.892,14.163 28.087,14.379 28.500 C 14.595 28.912,14.858 29.232,14.963 29.210 C 15.070 29.188,15.113 29.280,15.060 29.417 C 15.006 29.557,15.081 29.708,15.233 29.766 C 15.380 29.823,15.500 29.972,15.500 30.097 C 15.500 30.223,15.685 30.447,15.910 30.594 C 16.136 30.742,16.366 31.006,16.421 31.182 C 16.477 31.357,16.628 31.500,16.756 31.500 C 16.895 31.500,16.951 31.601,16.894 31.750 C 16.841 31.887,16.881 32.000,16.982 32.000 C 17.084 32.000,17.168 32.094,17.171 32.208 C 17.177 32.550,18.293 33.699,18.387 33.460 C 18.432 33.345,18.523 33.494,18.589 33.792 C 18.654 34.090,18.811 34.333,18.938 34.333 C 19.064 34.333,19.167 34.483,19.167 34.665 C 19.167 34.848,19.317 35.091,19.500 35.205 C 19.683 35.320,19.833 35.504,19.833 35.614 C 19.833 35.724,19.907 35.859,19.998 35.915 C 20.094 35.975,20.124 35.892,20.069 35.717 C 19.980 35.433,19.985 35.433,20.163 35.710 C 20.267 35.871,20.309 36.072,20.256 36.157 C 20.204 36.241,20.322 36.423,20.518 36.560 C 20.714 36.698,20.965 36.984,21.076 37.197 C 21.187 37.409,21.365 37.565,21.472 37.542 C 21.579 37.519,21.667 37.650,21.667 37.833 C 21.667 38.017,21.742 38.167,21.833 38.167 C 21.925 38.167,22.000 38.286,22.000 38.432 C 22.000 38.578,22.154 38.738,22.343 38.788 C 22.535 38.838,22.649 38.972,22.603 39.093 C 22.557 39.212,22.628 39.399,22.760 39.508 C 22.892 39.618,23.000 39.652,23.000 39.583 C 23.000 39.515,23.108 39.549,23.240 39.658 C 23.372 39.768,23.435 39.983,23.380 40.137 C 23.325 40.291,23.342 40.361,23.416 40.293 C 23.607 40.120,23.998 40.479,23.899 40.735 C 23.855 40.852,23.934 41.043,24.076 41.160 C 24.217 41.278,24.341 41.309,24.350 41.229 C 24.359 41.149,24.422 41.271,24.490 41.500 C 24.557 41.729,24.700 41.898,24.806 41.875 C 24.913 41.852,25.000 41.990,25.000 42.182 C 25.000 42.391,25.134 42.566,25.333 42.618 C 25.517 42.666,25.667 42.828,25.667 42.978 C 25.668 43.127,25.930 43.535,26.251 43.884 C 26.571 44.233,26.833 44.592,26.833 44.681 C 26.833 44.771,26.946 44.887,27.083 44.940 C 27.221 44.992,27.333 45.127,27.333 45.239 C 27.333 45.483,28.159 46.291,28.183 46.071 C 28.192 45.986,28.255 46.104,28.323 46.333 C 28.391 46.563,28.539 46.729,28.652 46.704 C 28.772 46.677,28.808 46.740,28.737 46.854 C 28.670 46.962,28.721 47.135,28.850 47.237 C 28.978 47.340,29.170 47.573,29.276 47.754 C 29.382 47.935,29.551 48.065,29.651 48.042 C 29.751 48.019,29.833 48.141,29.833 48.314 C 29.833 48.488,29.982 48.667,30.169 48.716 C 30.368 48.767,30.646 49.121,30.848 49.577 C 31.039 50.010,31.363 50.430,31.582 50.530 C 31.811 50.634,31.937 50.804,31.886 50.937 C 31.831 51.079,31.916 51.172,32.107 51.180 C 32.294 51.188,32.332 51.227,32.201 51.279 C 31.931 51.388,32.254 51.833,32.604 51.833 C 32.730 51.833,32.833 51.975,32.833 52.149 C 32.833 52.322,32.946 52.508,33.083 52.560 C 33.221 52.613,33.333 52.771,33.333 52.911 C 33.333 53.052,33.441 53.167,33.572 53.167 C 33.703 53.167,33.834 53.335,33.863 53.540 C 33.893 53.751,34.116 54.009,34.375 54.133 C 34.628 54.254,34.833 54.488,34.833 54.657 C 34.833 54.824,35.021 55.085,35.250 55.235 C 35.479 55.385,35.667 55.655,35.667 55.836 C 35.667 56.016,35.817 56.258,36.000 56.372 C 36.183 56.487,36.333 56.671,36.333 56.782 C 36.333 56.893,36.441 57.043,36.571 57.117 C 36.702 57.190,36.805 57.325,36.799 57.417 C 36.793 57.508,36.945 57.656,37.137 57.745 C 37.329 57.834,37.508 58.059,37.535 58.245 C 37.602 58.717,39.697 58.841,40.182 58.402 C 40.353 58.248,40.452 58.058,40.404 57.979 C 40.355 57.900,40.400 57.704,40.504 57.543 C 40.678 57.272,40.684 57.274,40.592 57.565 C 40.508 57.831,40.532 57.848,40.744 57.671 C 40.883 57.556,40.956 57.396,40.906 57.316 C 40.856 57.235,40.900 57.037,41.004 56.876 C 41.178 56.605,41.184 56.607,41.092 56.899 C 41.007 57.166,41.031 57.182,41.248 57.001 C 41.389 56.884,41.485 56.669,41.461 56.523 C 41.436 56.377,41.529 56.256,41.667 56.254 C 41.804 56.252,41.991 56.081,42.081 55.875 C 42.172 55.669,42.303 55.500,42.373 55.500 C 42.443 55.500,42.500 55.387,42.500 55.250 C 42.500 55.112,42.567 55.000,42.649 55.000 C 42.730 55.000,42.840 54.831,42.892 54.625 C 42.944 54.419,43.158 54.175,43.368 54.083 C 43.578 53.992,43.774 53.748,43.803 53.542 C 43.833 53.335,43.964 53.167,44.095 53.167 C 44.226 53.167,44.333 53.052,44.333 52.911 C 44.333 52.771,44.446 52.613,44.583 52.560 C 44.721 52.508,44.833 52.340,44.833 52.188 C 44.833 52.037,45.002 51.836,45.208 51.742 C 45.415 51.648,45.565 51.480,45.542 51.369 C 45.519 51.258,45.583 51.167,45.684 51.167 C 45.786 51.167,45.829 51.064,45.781 50.937 C 45.729 50.802,45.861 50.631,46.105 50.520 C 46.332 50.417,46.594 50.112,46.688 49.843 C 46.782 49.573,46.984 49.329,47.138 49.299 C 47.291 49.270,47.416 49.097,47.416 48.915 C 47.417 48.733,47.529 48.582,47.667 48.580 C 47.811 48.578,47.896 48.453,47.867 48.285 C 47.840 48.125,47.903 48.015,48.008 48.039 C 48.112 48.063,48.284 47.933,48.391 47.750 C 48.497 47.567,48.677 47.357,48.792 47.283 C 48.906 47.210,49.000 47.041,49.000 46.908 C 49.000 46.775,49.079 46.667,49.175 46.667 C 49.272 46.667,49.426 46.449,49.519 46.183 C 49.612 45.918,49.833 45.662,50.010 45.616 C 50.187 45.570,50.383 45.393,50.445 45.224 C 50.507 45.055,50.659 44.856,50.783 44.781 C 50.906 44.707,50.968 44.584,50.921 44.507 C 50.874 44.431,50.947 44.325,51.084 44.273 C 51.221 44.220,51.336 44.044,51.339 43.880 C 51.345 43.546,51.833 42.820,51.833 43.145 C 51.833 43.259,51.910 43.306,52.003 43.248 C 52.096 43.191,52.131 43.078,52.081 42.997 C 52.031 42.916,52.143 42.769,52.329 42.669 C 52.515 42.570,52.667 42.341,52.667 42.161 C 52.667 41.981,52.754 41.852,52.860 41.875 C 52.967 41.898,53.098 41.743,53.152 41.532 C 53.206 41.320,53.317 41.170,53.399 41.198 C 53.552 41.252,53.740 40.972,53.903 40.448 C 53.959 40.269,54.078 40.195,54.194 40.267 C 54.327 40.349,54.355 40.297,54.281 40.104 C 54.210 39.918,54.271 39.785,54.461 39.718 C 54.999 39.526,55.207 39.295,54.972 39.149 C 54.825 39.058,54.898 38.967,55.214 38.847 C 55.501 38.738,55.667 38.551,55.667 38.337 C 55.667 38.152,55.742 38.000,55.833 38.000 C 55.925 38.000,56.000 37.875,56.000 37.722 C 56.000 37.569,56.051 37.495,56.113 37.557 C 56.290 37.734,56.986 36.992,56.887 36.732 C 56.833 36.592,56.906 36.500,57.071 36.500 C 57.221 36.500,57.390 36.380,57.446 36.232 C 57.503 36.085,57.800 35.692,58.107 35.357 C 58.414 35.023,58.665 34.654,58.666 34.536 C 58.666 34.419,58.779 34.280,58.917 34.227 C 59.054 34.174,59.173 33.933,59.180 33.691 C 59.187 33.448,59.231 33.343,59.277 33.457 C 59.366 33.677,59.833 33.337,59.833 33.052 C 59.833 32.976,59.983 32.820,60.167 32.705 C 60.350 32.591,60.500 32.385,60.500 32.249 C 60.500 32.112,60.566 32.000,60.646 32.000 C 60.726 32.000,60.838 31.770,60.894 31.489 C 60.950 31.208,61.067 31.021,61.153 31.075 C 61.239 31.128,61.357 31.022,61.415 30.839 C 61.473 30.656,61.603 30.524,61.705 30.545 C 61.806 30.566,61.984 30.402,62.099 30.180 C 62.214 29.958,62.427 29.711,62.571 29.630 C 62.715 29.549,62.833 29.375,62.833 29.242 C 62.833 29.109,62.898 29.000,62.977 29.000 C 63.057 29.000,63.230 28.756,63.362 28.458 C 63.494 28.160,63.576 28.025,63.544 28.157 C 63.502 28.332,63.580 28.313,63.827 28.089 C 64.015 27.919,64.139 27.750,64.102 27.713 C 64.065 27.676,64.213 27.454,64.431 27.219 C 64.649 26.984,64.785 26.724,64.734 26.642 C 64.684 26.559,64.739 26.512,64.859 26.538 C 64.978 26.563,65.099 26.431,65.128 26.245 C 65.157 26.059,65.346 25.834,65.548 25.745 C 65.752 25.656,65.917 25.434,65.917 25.250 C 65.917 25.067,66.010 24.935,66.125 24.958 C 66.240 24.981,66.333 24.906,66.333 24.790 C 66.333 24.675,66.483 24.487,66.667 24.372 C 66.850 24.258,67.000 24.052,67.000 23.915 C 67.000 23.779,67.075 23.667,67.167 23.667 C 67.258 23.667,67.333 23.562,67.333 23.434 C 67.333 23.307,67.446 23.159,67.583 23.106 C 67.721 23.054,67.833 22.901,67.833 22.767 C 67.833 22.632,68.060 22.361,68.337 22.164 C 68.617 21.965,68.821 21.681,68.796 21.527 C 68.769 21.368,68.845 21.270,68.973 21.296 C 69.095 21.322,69.235 21.191,69.284 21.005 C 69.332 20.819,69.430 20.667,69.501 20.667 C 69.572 20.667,69.673 20.498,69.725 20.292 C 69.777 20.085,69.991 19.842,70.201 19.750 C 70.411 19.658,70.558 19.515,70.527 19.432 C 70.496 19.348,70.589 19.213,70.735 19.132 C 70.881 19.050,71.000 18.912,71.000 18.825 C 71.000 18.738,71.150 18.498,71.333 18.292 C 72.040 17.497,72.167 17.329,72.167 17.186 C 72.167 17.105,72.361 16.911,72.598 16.756 C 72.835 16.600,72.985 16.430,72.932 16.377 C 72.879 16.323,72.985 16.175,73.168 16.047 C 73.350 15.919,73.500 15.714,73.500 15.592 C 73.500 15.469,73.612 15.326,73.750 15.273 C 73.888 15.220,74.000 15.020,74.000 14.829 C 74.000 14.633,74.075 14.527,74.171 14.586 C 74.265 14.644,74.424 14.457,74.524 14.171 C 74.623 13.884,74.746 13.690,74.796 13.740 C 74.951 13.896,75.333 13.474,75.333 13.146 C 75.333 12.974,75.446 12.833,75.583 12.833 C 75.721 12.833,75.833 12.729,75.833 12.601 C 75.833 12.473,75.946 12.326,76.083 12.273 C 76.221 12.220,76.333 12.065,76.333 11.928 C 76.333 11.791,76.485 11.597,76.671 11.498 C 76.857 11.398,76.965 11.245,76.911 11.157 C 76.857 11.069,76.934 10.951,77.082 10.894 C 77.231 10.837,77.319 10.703,77.278 10.597 C 77.237 10.490,77.308 10.260,77.435 10.086 C 77.563 9.912,77.667 9.827,77.667 9.897 C 77.667 9.967,77.779 9.911,77.917 9.774 C 78.234 9.457,78.248 8.667,77.936 8.667 C 77.809 8.667,77.666 8.517,77.619 8.334 C 77.571 8.151,77.393 7.949,77.224 7.884 C 77.055 7.820,76.730 7.595,76.502 7.384 C 76.273 7.173,76.000 7.000,75.895 7.000 C 75.789 7.000,75.656 6.880,75.600 6.733 C 75.539 6.575,75.391 6.506,75.240 6.564 C 75.092 6.621,75.026 6.593,75.085 6.497 C 75.142 6.406,75.052 6.281,74.886 6.220 C 74.719 6.159,74.523 6.009,74.450 5.888 C 74.377 5.766,74.166 5.667,73.982 5.667 C 73.798 5.667,73.693 5.592,73.750 5.500 C 73.807 5.408,73.717 5.333,73.552 5.332 C 73.169 5.331,72.293 4.762,72.443 4.612 C 72.505 4.551,72.448 4.500,72.317 4.500 C 72.186 4.500,71.938 4.313,71.766 4.083 C 71.594 3.854,71.309 3.667,71.133 3.667 C 70.958 3.667,70.855 3.600,70.905 3.519 C 70.955 3.438,70.885 3.278,70.748 3.165 C 70.612 3.052,70.498 3.025,70.495 3.105 C 70.492 3.185,70.415 3.122,70.324 2.965 C 70.223 2.792,70.051 2.721,69.885 2.785 C 69.702 2.856,69.652 2.826,69.733 2.694 C 69.804 2.579,69.730 2.451,69.552 2.384 C 69.386 2.322,69.167 2.161,69.067 2.026 C 68.966 1.891,68.703 1.765,68.483 1.745 C 68.263 1.726,68.102 1.626,68.124 1.524 C 68.146 1.423,67.980 1.293,67.755 1.236 C 67.529 1.180,67.361 1.054,67.381 0.956 C 67.400 0.859,67.243 0.735,67.032 0.681 C 66.820 0.627,66.656 0.508,66.667 0.417 C 66.696 0.166,66.054 0.035,64.708 0.017 C 63.839 0.005,63.500 0.059,63.500 0.210 C 63.500 0.325,63.350 0.513,63.167 0.628 C 62.983 0.742,62.833 0.948,62.833 1.085 C 62.833 1.221,62.750 1.333,62.649 1.333 C 62.547 1.333,62.506 1.442,62.557 1.575 C 62.613 1.721,62.521 1.857,62.325 1.919 C 62.146 1.976,62.000 2.126,62.000 2.253 C 62.000 2.380,61.869 2.557,61.710 2.646 C 61.550 2.735,61.419 2.926,61.418 3.069 C 61.417 3.212,61.342 3.326,61.250 3.322 C 61.158 3.317,61.039 3.487,60.985 3.698 C 60.931 3.910,60.794 4.062,60.679 4.037 C 60.565 4.011,60.433 4.137,60.386 4.317 C 60.339 4.497,60.195 4.684,60.067 4.733 C 59.938 4.783,59.833 4.980,59.833 5.171 C 59.833 5.363,59.770 5.481,59.693 5.433 C 59.546 5.342,58.833 6.206,58.833 6.475 C 58.833 6.561,58.717 6.676,58.576 6.730 C 58.434 6.784,58.340 6.959,58.367 7.119 C 58.396 7.286,58.310 7.412,58.167 7.417 C 58.029 7.421,57.927 7.551,57.939 7.706 C 57.951 7.860,57.888 7.971,57.798 7.952 C 57.709 7.932,57.549 8.067,57.443 8.250 C 57.337 8.433,57.156 8.643,57.042 8.717 C 56.927 8.790,56.833 8.959,56.833 9.092 C 56.833 9.225,56.766 9.333,56.685 9.333 C 56.603 9.333,56.494 9.502,56.442 9.708 C 56.390 9.915,56.175 10.161,55.965 10.256 C 55.755 10.351,55.602 10.520,55.625 10.631 C 55.648 10.742,55.601 10.833,55.521 10.833 C 55.441 10.833,55.328 11.070,55.270 11.360 C 55.212 11.650,55.123 11.845,55.072 11.794 C 54.924 11.646,54.167 12.427,54.167 12.727 C 54.167 12.877,54.073 12.981,53.958 12.958 C 53.841 12.935,53.772 13.046,53.800 13.211 C 53.827 13.373,53.764 13.485,53.659 13.461 C 53.555 13.437,53.382 13.565,53.276 13.746 C 53.170 13.927,52.978 14.160,52.850 14.263 C 52.710 14.374,52.670 14.537,52.750 14.667 C 52.842 14.815,52.820 14.845,52.681 14.759 C 52.552 14.679,52.444 14.760,52.386 14.983 C 52.336 15.176,52.227 15.333,52.145 15.333 C 52.062 15.333,51.869 15.596,51.716 15.917 C 51.563 16.237,51.349 16.500,51.240 16.500 C 51.131 16.500,50.998 16.719,50.944 16.988 C 50.882 17.300,50.679 17.557,50.382 17.703 C 50.093 17.844,49.935 18.039,49.966 18.218 C 49.994 18.377,49.924 18.486,49.809 18.461 C 49.696 18.437,49.571 18.567,49.532 18.750 C 49.494 18.933,49.189 19.327,48.856 19.625 C 48.523 19.923,48.321 20.166,48.407 20.167 C 48.493 20.167,48.425 20.268,48.256 20.391 C 48.063 20.533,47.999 20.697,48.084 20.834 C 48.179 20.988,48.153 21.012,47.997 20.915 C 47.839 20.817,47.806 20.854,47.880 21.048 C 47.952 21.236,47.911 21.289,47.742 21.224 C 47.609 21.173,47.500 21.206,47.500 21.298 C 47.500 21.390,47.279 21.702,47.009 21.991 C 46.738 22.280,46.554 22.614,46.599 22.732 C 46.645 22.850,46.547 23.052,46.383 23.182 C 46.104 23.401,46.100 23.394,46.330 23.083 C 46.575 22.753,46.574 22.753,46.205 23.067 C 46.001 23.242,45.833 23.569,45.833 23.794 C 45.833 24.076,45.761 24.175,45.600 24.113 C 45.271 23.986,45.134 24.176,45.358 24.447 C 45.508 24.627,45.489 24.652,45.264 24.566 C 45.064 24.489,44.953 24.559,44.890 24.800 C 44.841 24.989,44.695 25.184,44.567 25.233 C 44.438 25.283,44.333 25.471,44.333 25.652 C 44.333 25.832,44.247 26.034,44.141 26.099 C 44.010 26.180,43.994 26.143,44.090 25.984 C 44.210 25.784,44.189 25.783,43.945 25.982 C 43.787 26.110,43.690 26.245,43.728 26.283 C 43.766 26.321,43.580 26.590,43.315 26.880 C 43.050 27.170,42.833 27.495,42.833 27.603 C 42.833 27.710,42.721 27.841,42.583 27.894 C 42.446 27.946,42.333 28.071,42.333 28.171 C 42.333 28.271,42.408 28.307,42.500 28.250 C 42.592 28.193,42.667 28.191,42.667 28.244 C 42.667 28.298,42.479 28.413,42.250 28.500 C 42.021 28.587,41.833 28.755,41.833 28.872 C 41.833 28.990,41.683 29.180,41.500 29.295 C 41.317 29.409,41.167 29.615,41.167 29.751 C 41.167 29.888,41.100 30.000,41.018 30.000 C 40.936 30.000,40.824 30.183,40.768 30.406 C 40.712 30.629,40.510 30.860,40.320 30.921 C 40.130 30.981,40.015 31.070,40.064 31.119 C 40.113 31.168,39.987 31.346,39.785 31.515 C 39.582 31.684,39.490 31.825,39.579 31.828 C 39.668 31.831,39.573 31.951,39.368 32.095 C 39.162 32.239,39.038 32.426,39.090 32.511 C 39.143 32.597,39.027 32.667,38.833 32.667 C 38.639 32.667,38.524 32.597,38.576 32.511 C 38.629 32.426,38.504 32.239,38.299 32.095 C 38.094 31.951,37.999 31.831,38.088 31.828 C 38.177 31.825,38.073 31.675,37.857 31.494 C 37.640 31.314,37.528 31.164,37.607 31.160 C 37.685 31.156,37.544 31.041,37.292 30.905 C 37.031 30.763,36.833 30.514,36.833 30.328 C 36.833 30.148,36.758 30.000,36.667 30.000 C 36.575 30.000,36.500 29.888,36.500 29.751 C 36.500 29.615,36.350 29.409,36.167 29.295 C 35.983 29.180,35.833 29.003,35.833 28.901 C 35.833 28.799,35.665 28.527,35.458 28.297 C 35.252 28.067,35.000 27.738,34.899 27.565 C 34.797 27.392,34.609 27.248,34.482 27.246 C 34.350 27.244,34.273 27.111,34.303 26.938 C 34.332 26.768,34.282 26.679,34.190 26.736 C 34.098 26.792,33.998 26.668,33.966 26.461 C 33.935 26.253,33.817 26.102,33.704 26.125 C 33.592 26.148,33.500 26.021,33.500 25.843 C 33.500 25.665,33.333 25.402,33.130 25.259 C 32.926 25.117,32.823 25.000,32.900 25.000 C 32.977 25.000,32.948 24.888,32.835 24.752 C 32.722 24.615,32.563 24.544,32.483 24.594 C 32.403 24.643,32.384 24.563,32.440 24.415 C 32.511 24.231,32.430 24.117,32.179 24.051 C 31.970 23.997,31.850 23.864,31.897 23.740 C 31.991 23.496,31.611 23.111,31.443 23.279 C 31.340 23.382,31.265 23.083,31.318 22.779 C 31.331 22.704,31.273 22.684,31.190 22.736 C 31.106 22.787,30.951 22.725,30.845 22.598 C 30.698 22.421,30.704 22.345,30.868 22.277 C 31.005 22.221,30.946 22.147,30.707 22.075 C 30.499 22.012,30.284 21.777,30.228 21.553 C 30.166 21.307,30.038 21.180,29.905 21.232 C 29.756 21.288,29.718 21.228,29.787 21.048 C 29.855 20.870,29.825 20.819,29.697 20.898 C 29.575 20.973,29.537 20.931,29.594 20.782 C 29.693 20.525,28.443 19.113,28.270 19.285 C 28.213 19.342,28.167 19.193,28.167 18.954 C 28.167 18.715,28.080 18.466,27.974 18.401 C 27.847 18.322,27.827 18.356,27.917 18.500 C 28.007 18.646,27.986 18.678,27.855 18.597 C 27.746 18.530,27.679 18.350,27.704 18.197 C 27.730 18.040,27.587 17.847,27.375 17.754 C 27.169 17.662,27.000 17.455,27.000 17.294 C 27.000 17.132,26.925 17.000,26.833 17.000 C 26.742 17.000,26.685 16.910,26.708 16.799 C 26.731 16.689,26.637 16.595,26.500 16.591 C 26.363 16.587,26.226 16.412,26.196 16.202 C 26.166 15.992,25.997 15.730,25.821 15.620 C 25.644 15.510,25.500 15.325,25.500 15.210 C 25.500 15.094,25.425 15.000,25.333 15.000 C 25.242 15.000,25.167 14.892,25.167 14.759 C 25.167 14.627,25.030 14.421,24.864 14.301 C 24.698 14.181,24.511 13.947,24.449 13.781 C 24.383 13.606,24.254 13.529,24.142 13.599 C 24.024 13.672,23.993 13.646,24.064 13.532 C 24.127 13.429,24.039 13.206,23.868 13.035 C 23.698 12.864,23.506 12.588,23.442 12.422 C 23.378 12.255,23.277 12.167,23.219 12.226 C 23.049 12.396,22.181 11.324,22.280 11.066 C 22.329 10.938,22.286 10.833,22.184 10.833 C 22.083 10.833,22.019 10.751,22.042 10.651 C 22.065 10.551,21.937 10.382,21.757 10.276 C 21.215 9.956,21.053 9.759,21.133 9.517 C 21.180 9.378,21.136 9.333,21.022 9.403 C 20.905 9.475,20.833 9.389,20.833 9.177 C 20.833 8.988,20.758 8.833,20.667 8.833 C 20.575 8.833,20.500 8.725,20.500 8.593 C 20.500 8.460,20.364 8.254,20.197 8.134 C 20.031 8.015,19.845 7.785,19.785 7.623 C 19.725 7.462,19.580 7.350,19.463 7.373 C 19.346 7.397,19.270 7.295,19.294 7.145 C 19.319 6.996,19.121 6.641,18.855 6.356 C 18.589 6.071,18.327 5.725,18.274 5.586 C 18.221 5.447,18.109 5.333,18.025 5.333 C 17.941 5.333,17.831 5.176,17.781 4.983 C 17.722 4.758,17.616 4.679,17.483 4.761 C 17.340 4.849,17.309 4.805,17.381 4.615 C 17.446 4.446,17.363 4.256,17.161 4.115 C 16.982 3.989,16.885 3.837,16.946 3.777 C 17.006 3.716,16.926 3.667,16.768 3.667 C 16.610 3.667,16.527 3.592,16.583 3.500 C 16.640 3.408,16.607 3.333,16.510 3.333 C 16.413 3.333,16.333 3.223,16.333 3.089 C 16.333 2.955,16.183 2.765,16.000 2.667 C 15.817 2.569,15.667 2.378,15.667 2.244 C 15.667 2.110,15.592 2.000,15.500 2.000 C 15.408 2.000,15.333 1.885,15.333 1.745 C 15.333 1.604,15.221 1.446,15.083 1.394 C 14.946 1.341,14.833 1.181,14.833 1.038 C 14.833 0.895,14.787 0.824,14.730 0.881 C 14.588 1.023,14.167 0.578,14.167 0.285 C 14.167 0.101,13.864 0.040,12.833 0.015 C 11.991 -0.006,11.500 0.047,11.500 0.158 M209.000 0.250 C 208.886 0.388,208.835 0.500,208.887 0.500 C 208.939 0.500,208.760 0.742,208.491 1.037 C 208.221 1.333,208.000 1.662,208.000 1.769 C 208.000 1.877,207.887 2.008,207.750 2.060 C 207.612 2.113,207.500 2.271,207.500 2.411 C 207.500 2.552,207.421 2.667,207.325 2.667 C 207.228 2.667,207.074 2.884,206.981 3.150 C 206.888 3.416,206.667 3.671,206.490 3.717 C 206.313 3.764,206.117 3.940,206.055 4.109 C 205.993 4.278,205.846 4.475,205.728 4.546 C 205.610 4.617,205.557 4.789,205.611 4.928 C 205.670 5.084,205.624 5.162,205.489 5.132 C 205.368 5.105,205.239 5.228,205.200 5.405 C 205.116 5.793,204.747 6.191,204.603 6.048 C 204.546 5.991,204.500 6.107,204.500 6.306 C 204.500 6.520,204.395 6.667,204.243 6.667 C 204.091 6.667,204.006 6.785,204.034 6.955 C 204.063 7.120,203.977 7.244,203.833 7.246 C 203.696 7.248,203.482 7.479,203.359 7.759 C 203.236 8.039,202.973 8.339,202.776 8.426 C 202.578 8.512,202.439 8.644,202.466 8.717 C 202.493 8.791,202.343 8.995,202.132 9.170 C 201.922 9.345,201.823 9.491,201.912 9.494 C 202.001 9.498,201.907 9.617,201.704 9.759 C 201.500 9.902,201.333 10.165,201.333 10.343 C 201.333 10.521,201.248 10.667,201.143 10.667 C 200.887 10.667,200.512 11.181,200.505 11.542 C 200.502 11.702,200.406 11.815,200.292 11.792 C 200.177 11.769,200.104 11.849,200.129 11.971 C 200.154 12.092,200.107 12.149,200.023 12.098 C 199.803 11.962,199.446 12.452,199.556 12.739 C 199.620 12.906,199.570 12.953,199.398 12.887 C 199.236 12.824,199.115 12.912,199.057 13.133 C 199.008 13.322,198.862 13.517,198.734 13.567 C 198.605 13.616,198.500 13.809,198.500 13.995 C 198.500 14.181,198.409 14.315,198.298 14.292 C 198.187 14.269,198.019 14.419,197.925 14.625 C 197.831 14.831,197.697 15.000,197.627 15.000 C 197.557 15.000,197.500 15.137,197.500 15.305 C 197.500 15.473,197.313 15.711,197.083 15.833 C 196.852 15.957,196.667 16.205,196.667 16.389 C 196.667 16.572,196.617 16.673,196.557 16.613 C 196.384 16.439,196.000 16.841,196.000 17.197 C 196.000 17.374,195.925 17.473,195.833 17.417 C 195.742 17.360,195.667 17.420,195.667 17.550 C 195.667 17.680,195.482 17.926,195.256 18.095 C 194.962 18.316,194.902 18.441,195.047 18.535 C 195.188 18.627,195.141 18.697,194.893 18.765 C 194.486 18.877,193.449 20.227,193.631 20.408 C 193.696 20.474,193.649 20.503,193.526 20.472 C 193.403 20.442,193.216 20.566,193.109 20.747 C 193.003 20.929,192.784 21.178,192.622 21.301 C 192.460 21.423,192.366 21.585,192.413 21.661 C 192.460 21.736,192.386 21.841,192.249 21.894 C 192.112 21.947,192.000 22.067,192.000 22.161 C 192.000 22.256,191.850 22.483,191.667 22.667 C 191.483 22.850,191.333 23.104,191.333 23.231 C 191.333 23.357,191.183 23.500,191.000 23.548 C 190.785 23.605,190.667 23.776,190.667 24.031 C 190.667 24.410,190.258 24.909,189.923 24.940 C 189.834 24.948,189.684 25.096,189.589 25.269 C 189.494 25.442,189.323 25.643,189.208 25.717 C 189.094 25.790,189.000 25.924,189.000 26.015 C 189.000 26.214,188.747 26.539,188.105 27.167 C 187.842 27.424,187.678 27.717,187.740 27.817 C 187.802 27.918,187.755 28.001,187.635 28.001 C 187.413 28.002,186.667 28.974,186.667 29.262 C 186.667 29.350,186.506 29.495,186.311 29.585 C 186.115 29.676,185.971 29.818,185.992 29.902 C 186.013 29.985,185.911 30.120,185.765 30.202 C 185.619 30.283,185.500 30.441,185.500 30.552 C 185.500 30.662,185.350 30.847,185.167 30.961 C 184.983 31.076,184.833 31.279,184.833 31.412 C 184.833 31.546,184.692 31.731,184.519 31.823 C 184.346 31.916,184.159 32.176,184.102 32.401 C 184.046 32.627,183.774 32.971,183.500 33.167 C 183.225 33.363,183.000 33.630,183.000 33.761 C 183.000 33.893,182.923 34.000,182.829 34.000 C 182.735 34.000,182.587 34.188,182.500 34.417 C 182.413 34.646,182.272 34.833,182.187 34.833 C 182.102 34.833,181.954 35.058,181.858 35.333 C 181.762 35.608,181.638 35.833,181.582 35.833 C 181.526 35.833,181.537 35.740,181.605 35.625 C 181.691 35.483,181.640 35.490,181.449 35.645 C 181.294 35.771,181.167 35.959,181.167 36.064 C 181.167 36.168,181.017 36.347,180.833 36.461 C 180.650 36.576,180.500 36.781,180.500 36.918 C 180.500 37.055,180.425 37.167,180.333 37.167 C 180.242 37.167,180.167 37.317,180.167 37.500 C 180.167 37.683,180.063 37.833,179.937 37.833 C 179.811 37.833,179.614 37.946,179.500 38.083 C 179.334 38.284,179.335 38.333,179.507 38.333 C 179.720 38.333,179.576 38.581,179.361 38.586 C 179.082 38.592,178.857 38.867,178.944 39.095 C 179.004 39.250,178.957 39.328,178.822 39.298 C 178.702 39.272,178.466 39.534,178.297 39.882 C 178.129 40.230,177.918 40.469,177.829 40.414 C 177.740 40.359,177.667 40.468,177.667 40.657 C 177.667 40.847,177.558 41.000,177.423 41.000 C 177.135 41.000,176.792 41.564,176.964 41.755 C 177.030 41.827,176.989 41.832,176.874 41.766 C 176.747 41.693,176.620 41.765,176.553 41.948 C 176.492 42.114,176.342 42.310,176.221 42.383 C 176.099 42.457,176.000 42.617,176.000 42.740 C 176.000 42.864,175.887 43.008,175.750 43.060 C 175.612 43.113,175.500 43.304,175.500 43.486 C 175.500 43.681,175.313 43.905,175.042 44.035 C 174.770 44.165,174.584 44.389,174.584 44.585 C 174.583 44.767,174.471 44.919,174.333 44.924 C 174.196 44.928,174.103 45.024,174.127 45.137 C 174.150 45.250,174.057 45.386,173.918 45.439 C 173.780 45.492,173.667 45.682,173.667 45.861 C 173.667 46.041,173.590 46.139,173.496 46.081 C 173.402 46.023,173.244 46.206,173.146 46.487 C 173.048 46.769,172.862 47.000,172.734 47.000 C 172.605 47.000,172.500 47.162,172.500 47.361 C 172.500 47.560,172.451 47.673,172.390 47.613 C 172.217 47.439,171.833 47.841,171.833 48.197 C 171.833 48.374,171.764 48.477,171.678 48.424 C 171.452 48.284,171.314 48.586,171.261 49.338 C 171.229 49.780,171.282 50.000,171.421 50.000 C 171.535 50.000,171.667 50.150,171.715 50.332 C 171.763 50.515,171.940 50.717,172.109 50.781 C 172.278 50.846,172.516 50.996,172.637 51.116 C 172.758 51.235,172.993 51.333,173.159 51.333 C 173.325 51.333,173.500 51.483,173.548 51.667 C 173.599 51.862,173.776 52.000,173.975 52.000 C 174.162 52.000,174.412 52.139,174.532 52.309 C 174.652 52.480,174.920 52.673,175.127 52.738 C 175.335 52.804,175.459 52.932,175.402 53.023 C 175.346 53.114,175.457 53.230,175.650 53.281 C 175.842 53.331,176.000 53.438,176.000 53.519 C 176.000 53.600,176.112 53.667,176.250 53.667 C 176.387 53.667,176.500 53.742,176.500 53.833 C 176.500 53.925,176.650 54.000,176.833 54.000 C 177.017 54.000,177.167 54.094,177.167 54.210 C 177.167 54.416,177.755 54.876,177.913 54.793 C 177.957 54.769,178.113 54.920,178.258 55.128 C 178.404 55.336,178.585 55.467,178.661 55.420 C 178.736 55.374,178.841 55.447,178.894 55.584 C 178.947 55.721,179.142 55.833,179.328 55.833 C 179.514 55.833,179.648 55.927,179.625 56.042 C 179.602 56.159,179.712 56.228,179.878 56.200 C 180.048 56.172,180.153 56.242,180.128 56.367 C 180.101 56.496,180.280 56.606,180.571 56.639 C 180.935 56.680,180.998 56.732,180.821 56.845 C 180.640 56.959,180.675 56.996,180.968 56.997 C 181.182 56.999,181.307 57.074,181.250 57.167 C 181.193 57.258,181.256 57.333,181.389 57.333 C 181.522 57.333,181.674 57.446,181.727 57.583 C 181.780 57.721,181.980 57.833,182.171 57.833 C 182.376 57.833,182.474 57.907,182.410 58.011 C 182.349 58.109,182.457 58.230,182.650 58.281 C 182.842 58.331,183.000 58.438,183.000 58.519 C 183.000 58.726,185.285 58.704,185.678 58.494 C 185.855 58.399,186.000 58.170,186.000 57.984 C 186.000 57.799,186.075 57.693,186.167 57.750 C 186.258 57.807,186.333 57.699,186.333 57.510 C 186.333 57.321,186.415 57.185,186.516 57.208 C 186.616 57.231,186.784 57.100,186.891 56.917 C 186.997 56.733,187.177 56.523,187.292 56.450 C 187.406 56.377,187.500 56.208,187.500 56.075 C 187.500 55.942,187.575 55.833,187.667 55.833 C 187.758 55.833,187.833 55.671,187.833 55.472 C 187.833 55.274,187.883 55.160,187.943 55.221 C 188.116 55.394,188.500 54.992,188.500 54.636 C 188.500 54.432,188.572 54.358,188.695 54.434 C 188.825 54.514,188.856 54.465,188.787 54.286 C 188.719 54.108,188.794 53.982,189.009 53.914 C 189.187 53.857,189.333 53.712,189.333 53.591 C 189.333 53.470,189.518 53.250,189.745 53.102 C 189.979 52.949,190.117 52.732,190.067 52.600 C 190.017 52.472,190.069 52.310,190.181 52.241 C 190.324 52.153,190.342 52.186,190.244 52.349 C 190.123 52.550,190.144 52.550,190.389 52.351 C 190.546 52.224,190.646 52.090,190.611 52.055 C 190.575 52.020,190.793 51.722,191.094 51.393 C 191.429 51.028,191.603 50.695,191.543 50.537 C 191.475 50.361,191.509 50.319,191.650 50.406 C 191.782 50.488,191.888 50.412,191.944 50.195 C 191.993 50.009,192.138 49.816,192.266 49.767 C 192.395 49.717,192.500 49.570,192.500 49.440 C 192.500 49.309,192.612 49.159,192.750 49.106 C 192.887 49.054,193.000 48.904,193.000 48.773 C 193.000 48.642,193.112 48.492,193.250 48.440 C 193.387 48.387,193.500 48.191,193.500 48.005 C 193.500 47.819,193.582 47.685,193.682 47.708 C 193.782 47.731,193.951 47.600,194.057 47.417 C 194.163 47.233,194.295 47.046,194.349 47.000 C 194.404 46.954,194.501 46.702,194.566 46.439 C 194.630 46.176,194.721 45.999,194.768 46.046 C 194.856 46.134,195.632 45.483,195.617 45.333 C 195.613 45.288,195.847 44.990,196.138 44.671 C 196.429 44.353,196.667 43.964,196.667 43.806 C 196.667 43.649,196.753 43.466,196.859 43.401 C 196.986 43.322,197.006 43.356,196.917 43.500 C 196.827 43.644,196.847 43.678,196.974 43.599 C 197.080 43.534,197.167 43.414,197.167 43.334 C 197.167 43.253,197.392 42.941,197.667 42.640 C 197.942 42.339,198.167 41.959,198.167 41.796 C 198.167 41.633,198.279 41.500,198.417 41.500 C 198.554 41.500,198.667 41.396,198.667 41.268 C 198.667 41.140,198.779 40.992,198.917 40.940 C 199.054 40.887,199.167 40.700,199.167 40.525 C 199.167 40.346,199.313 40.167,199.500 40.118 C 199.683 40.070,199.833 39.912,199.833 39.766 C 199.833 39.620,199.908 39.500,200.000 39.500 C 200.092 39.500,200.167 39.387,200.167 39.250 C 200.167 39.112,200.233 39.000,200.313 39.000 C 200.394 39.000,200.550 38.782,200.660 38.516 C 200.770 38.250,201.004 37.994,201.180 37.948 C 201.367 37.899,201.500 37.719,201.500 37.516 C 201.500 37.324,201.556 37.185,201.625 37.208 C 201.694 37.231,201.762 37.182,201.777 37.098 C 201.791 37.015,201.923 36.880,202.068 36.798 C 202.214 36.717,202.333 36.574,202.333 36.482 C 202.333 36.389,202.240 36.370,202.125 36.439 C 201.983 36.524,201.990 36.474,202.145 36.282 C 202.271 36.127,202.480 36.000,202.609 36.000 C 202.738 36.000,202.894 35.869,202.955 35.708 C 203.016 35.548,203.239 35.230,203.450 35.002 C 203.661 34.773,203.833 34.463,203.833 34.313 C 203.833 34.162,203.985 33.999,204.171 33.950 C 204.357 33.902,204.499 33.799,204.485 33.723 C 204.419 33.346,204.521 33.000,204.698 33.000 C 205.023 33.000,205.649 32.316,205.553 32.066 C 205.500 31.925,205.572 31.833,205.737 31.833 C 205.888 31.833,206.060 31.702,206.120 31.542 C 206.180 31.381,206.333 31.172,206.460 31.077 C 206.587 30.982,206.666 30.798,206.637 30.668 C 206.607 30.538,206.696 30.428,206.833 30.424 C 206.971 30.420,207.107 30.248,207.137 30.042 C 207.166 29.835,207.297 29.667,207.428 29.667 C 207.559 29.667,207.667 29.554,207.667 29.417 C 207.667 29.279,207.742 29.167,207.833 29.167 C 207.925 29.167,208.000 29.054,208.000 28.917 C 208.000 28.779,208.074 28.667,208.164 28.667 C 208.255 28.667,208.441 28.399,208.578 28.071 C 208.714 27.744,208.903 27.523,208.997 27.581 C 209.091 27.640,209.167 27.534,209.167 27.343 C 209.167 27.154,209.246 27.000,209.342 27.000 C 209.438 27.000,209.598 26.768,209.697 26.484 C 209.813 26.151,209.921 26.039,210.001 26.168 C 210.090 26.312,210.157 26.317,210.239 26.184 C 210.410 25.908,210.833 25.962,210.833 26.260 C 210.833 26.403,210.908 26.473,211.000 26.417 C 211.092 26.360,211.167 26.467,211.167 26.655 C 211.167 26.843,211.317 27.091,211.500 27.205 C 211.683 27.320,211.833 27.508,211.833 27.623 C 211.833 27.739,211.927 27.815,212.042 27.792 C 212.156 27.769,212.252 27.863,212.254 28.000 C 212.261 28.386,212.503 28.685,212.707 28.559 C 212.823 28.487,212.853 28.542,212.788 28.710 C 212.664 29.035,213.071 29.408,213.368 29.240 C 213.536 29.144,213.540 29.165,213.385 29.333 C 213.154 29.582,213.916 30.739,214.196 30.565 C 214.284 30.511,214.332 30.568,214.304 30.692 C 214.253 30.913,214.889 31.840,215.625 32.619 C 215.831 32.837,216.000 33.052,216.000 33.098 C 216.000 33.411,216.747 34.143,216.879 33.959 C 216.979 33.819,217.002 33.872,216.948 34.119 C 216.869 34.483,217.185 34.926,217.382 34.729 C 217.438 34.673,217.533 34.824,217.593 35.064 C 217.654 35.304,217.774 35.500,217.861 35.500 C 217.948 35.500,217.979 35.567,217.928 35.648 C 217.808 35.842,218.244 36.200,218.406 36.040 C 218.475 35.972,218.506 36.066,218.474 36.248 C 218.436 36.467,218.545 36.637,218.792 36.746 C 218.998 36.838,219.167 37.045,219.167 37.206 C 219.167 37.370,219.296 37.506,219.458 37.513 C 219.644 37.522,219.672 37.558,219.535 37.613 C 219.370 37.679,219.365 37.754,219.512 37.931 C 219.618 38.059,219.771 38.122,219.852 38.072 C 219.933 38.021,220.000 38.129,220.000 38.311 C 220.000 38.493,220.191 38.793,220.425 38.977 C 220.659 39.161,220.833 39.335,220.811 39.364 C 220.714 39.492,221.385 40.321,221.518 40.239 C 221.600 40.188,221.667 40.292,221.667 40.470 C 221.667 40.647,221.794 40.895,221.949 41.021 C 222.191 41.218,222.213 41.215,222.103 41.000 C 222.033 40.862,222.091 40.892,222.232 41.066 C 222.374 41.240,222.450 41.446,222.401 41.525 C 222.353 41.603,222.398 41.667,222.500 41.667 C 222.602 41.667,222.637 41.747,222.576 41.845 C 222.516 41.943,222.627 42.064,222.826 42.116 C 223.042 42.173,223.151 42.301,223.098 42.439 C 223.018 42.646,223.200 42.744,223.554 42.682 C 223.630 42.669,223.644 42.735,223.586 42.829 C 223.528 42.923,223.560 43.000,223.657 43.000 C 223.754 43.000,223.833 43.150,223.833 43.333 C 223.833 43.539,223.945 43.668,224.125 43.669 C 224.356 43.671,224.369 43.702,224.186 43.818 C 224.005 43.932,224.050 44.025,224.395 44.251 C 224.636 44.409,224.833 44.642,224.833 44.769 C 224.833 44.896,224.910 45.000,225.004 45.000 C 225.098 45.000,225.246 45.186,225.332 45.413 C 225.437 45.690,225.575 45.794,225.747 45.728 C 225.933 45.657,225.975 45.704,225.900 45.900 C 225.788 46.191,226.120 46.715,226.333 46.583 C 226.404 46.539,226.452 46.634,226.440 46.793 C 226.427 46.953,226.510 47.065,226.625 47.042 C 226.740 47.019,226.833 47.152,226.833 47.339 C 226.833 47.525,226.938 47.717,227.067 47.767 C 227.195 47.816,227.340 48.009,227.389 48.195 C 227.445 48.409,227.552 48.487,227.681 48.408 C 227.809 48.329,227.842 48.351,227.770 48.468 C 227.706 48.571,227.807 48.807,227.994 48.994 C 228.181 49.181,228.333 49.381,228.333 49.439 C 228.333 49.621,229.141 50.303,229.240 50.205 C 229.326 50.119,229.401 50.576,229.352 50.880 C 229.340 50.951,229.443 51.053,229.582 51.106 C 229.720 51.159,229.833 51.304,229.833 51.429 C 229.833 51.553,229.983 51.735,230.167 51.833 C 230.350 51.931,230.500 52.122,230.500 52.256 C 230.500 52.390,230.566 52.500,230.647 52.500 C 230.728 52.500,230.834 52.650,230.882 52.833 C 230.930 53.017,231.088 53.167,231.234 53.167 C 231.380 53.167,231.500 53.300,231.500 53.463 C 231.500 53.626,231.723 54.003,231.995 54.301 C 232.267 54.599,232.500 54.897,232.512 54.963 C 232.524 55.029,232.601 55.065,232.683 55.042 C 232.766 55.019,232.833 55.141,232.833 55.313 C 232.833 55.661,233.219 56.059,233.390 55.887 C 233.451 55.827,233.500 55.940,233.500 56.139 C 233.500 56.339,233.593 56.481,233.708 56.458 C 233.823 56.435,233.895 56.518,233.869 56.643 C 233.804 56.950,234.163 57.355,234.381 57.221 C 234.492 57.152,234.515 57.220,234.443 57.408 C 234.360 57.624,234.395 57.679,234.573 57.610 C 234.736 57.548,234.786 57.596,234.724 57.758 C 234.668 57.903,234.731 58.000,234.880 58.000 C 235.017 58.000,235.119 58.131,235.106 58.292 C 235.087 58.542,235.266 58.591,236.375 58.638 C 237.133 58.670,237.667 58.626,237.667 58.531 C 237.667 58.443,237.798 58.381,237.958 58.394 C 238.141 58.408,238.241 58.308,238.227 58.125 C 238.211 57.922,238.325 57.833,238.602 57.833 C 238.821 57.833,239.000 57.758,239.000 57.667 C 239.000 57.575,239.112 57.500,239.250 57.500 C 239.387 57.500,239.500 57.425,239.500 57.333 C 239.500 57.242,239.591 57.185,239.702 57.208 C 239.813 57.231,239.981 57.081,240.075 56.875 C 240.169 56.669,240.378 56.500,240.540 56.500 C 240.701 56.500,240.833 56.421,240.833 56.323 C 240.833 56.226,240.904 56.190,240.990 56.244 C 241.076 56.297,241.224 56.208,241.318 56.045 C 241.413 55.883,241.492 55.815,241.495 55.895 C 241.498 55.975,241.612 55.948,241.748 55.835 C 241.885 55.722,241.956 55.563,241.906 55.483 C 241.857 55.403,241.932 55.382,242.073 55.436 C 242.225 55.494,242.373 55.425,242.433 55.267 C 242.490 55.120,242.642 55.000,242.773 55.000 C 242.904 55.000,243.054 54.887,243.106 54.750 C 243.159 54.612,243.276 54.500,243.367 54.500 C 243.622 54.500,244.335 53.890,244.217 53.772 C 244.159 53.714,244.269 53.667,244.461 53.667 C 244.661 53.667,244.855 53.528,244.914 53.342 C 244.982 53.127,245.108 53.052,245.286 53.120 C 245.453 53.184,245.513 53.156,245.445 53.046 C 245.385 52.948,245.451 52.824,245.593 52.769 C 245.762 52.704,245.815 52.741,245.746 52.877 C 245.689 52.990,245.741 52.966,245.863 52.823 C 245.984 52.680,246.219 52.512,246.386 52.449 C 246.563 52.383,246.638 52.255,246.567 52.140 C 246.487 52.011,246.532 51.977,246.697 52.040 C 246.840 52.095,247.047 51.999,247.178 51.818 C 247.304 51.643,247.507 51.500,247.630 51.500 C 247.753 51.500,247.807 51.425,247.750 51.333 C 247.693 51.242,247.801 51.167,247.990 51.167 C 248.179 51.167,248.333 51.063,248.333 50.937 C 248.333 50.811,248.460 50.605,248.615 50.479 C 248.807 50.323,248.857 50.317,248.772 50.458 C 248.536 50.852,248.976 50.667,249.321 50.228 C 249.668 49.787,249.814 48.722,249.502 48.915 C 249.408 48.974,249.379 48.907,249.436 48.760 C 249.494 48.609,249.425 48.461,249.267 48.400 C 249.120 48.344,248.998 48.212,248.994 48.107 C 248.987 47.850,248.405 47.167,248.193 47.167 C 248.100 47.167,247.997 46.998,247.966 46.792 C 247.934 46.585,247.811 46.437,247.692 46.462 C 247.573 46.488,247.521 46.434,247.577 46.344 C 247.681 46.175,247.304 45.743,246.735 45.380 C 246.426 45.182,246.427 45.179,246.750 45.269 C 247.023 45.346,247.000 45.286,246.625 44.939 C 246.373 44.706,246.167 44.429,246.167 44.323 C 246.167 44.218,246.050 44.176,245.908 44.230 C 245.766 44.285,245.690 44.263,245.740 44.182 C 245.790 44.101,245.719 43.992,245.582 43.939 C 245.445 43.887,245.333 43.699,245.333 43.523 C 245.333 43.347,245.216 43.157,245.073 43.102 C 244.929 43.047,244.857 42.931,244.911 42.843 C 244.965 42.755,244.857 42.602,244.671 42.502 C 244.485 42.403,244.333 42.209,244.333 42.072 C 244.333 41.935,244.221 41.780,244.083 41.727 C 243.946 41.674,243.833 41.530,243.833 41.407 C 243.833 41.284,243.740 41.123,243.625 41.050 C 243.510 40.977,243.330 40.767,243.224 40.583 C 243.118 40.400,242.956 40.267,242.863 40.287 C 242.771 40.307,242.616 40.095,242.519 39.816 C 242.422 39.537,242.265 39.356,242.171 39.414 C 242.075 39.473,242.000 39.367,242.000 39.171 C 242.000 38.980,241.887 38.780,241.750 38.727 C 241.612 38.674,241.500 38.531,241.500 38.408 C 241.500 38.286,241.333 38.069,241.130 37.926 C 240.926 37.783,240.823 37.667,240.900 37.667 C 240.977 37.667,240.948 37.555,240.835 37.419 C 240.722 37.282,240.557 37.215,240.470 37.269 C 240.383 37.323,240.335 37.255,240.364 37.118 C 240.422 36.844,239.582 35.973,239.418 36.137 C 239.362 36.194,239.365 36.112,239.425 35.955 C 239.495 35.772,239.438 35.633,239.267 35.567 C 239.120 35.510,239.000 35.364,239.000 35.240 C 239.000 35.117,238.881 34.950,238.735 34.868 C 238.589 34.787,238.487 34.652,238.508 34.568 C 238.529 34.485,238.382 34.342,238.182 34.250 C 237.983 34.158,237.777 33.915,237.725 33.708 C 237.673 33.502,237.564 33.333,237.482 33.333 C 237.400 33.333,237.333 33.216,237.333 33.073 C 237.333 32.931,237.261 32.859,237.172 32.914 C 237.083 32.969,236.962 32.822,236.903 32.588 C 236.844 32.354,236.580 32.009,236.315 31.820 C 236.050 31.632,235.833 31.368,235.833 31.233 C 235.833 31.099,235.721 30.946,235.583 30.894 C 235.446 30.841,235.333 30.701,235.333 30.583 C 235.333 30.465,235.108 30.128,234.833 29.833 C 234.558 29.539,234.333 29.227,234.333 29.139 C 234.333 29.052,234.258 29.027,234.167 29.083 C 234.075 29.140,233.991 29.107,233.979 29.010 C 233.968 28.913,233.949 28.740,233.938 28.625 C 233.926 28.510,233.751 28.344,233.548 28.255 C 233.346 28.166,233.157 27.941,233.128 27.755 C 233.099 27.569,232.983 27.435,232.871 27.458 C 232.759 27.481,232.683 27.444,232.702 27.375 C 232.768 27.142,232.318 26.490,232.158 26.589 C 232.071 26.642,232.000 26.541,232.000 26.364 C 232.000 26.186,231.873 25.938,231.718 25.812 C 231.526 25.657,231.476 25.650,231.561 25.792 C 231.630 25.906,231.641 26.000,231.584 26.000 C 231.528 26.000,231.404 25.775,231.308 25.500 C 231.212 25.225,231.024 25.000,230.891 25.000 C 230.749 25.000,230.697 24.919,230.766 24.808 C 230.831 24.702,230.750 24.518,230.586 24.398 C 230.421 24.278,230.198 24.008,230.088 23.798 C 229.979 23.588,229.802 23.435,229.695 23.458 C 229.588 23.481,229.500 23.425,229.500 23.332 C 229.500 23.240,229.318 23.006,229.096 22.813 C 228.874 22.620,228.732 22.358,228.780 22.231 C 228.829 22.104,228.786 22.000,228.684 22.000 C 228.583 22.000,228.500 21.888,228.500 21.751 C 228.500 21.615,228.350 21.409,228.167 21.295 C 227.983 21.180,227.833 20.995,227.833 20.882 C 227.833 20.770,227.684 20.599,227.502 20.501 C 227.319 20.403,227.188 20.235,227.210 20.128 C 227.232 20.020,227.137 19.925,227.000 19.917 C 226.862 19.908,226.772 19.802,226.799 19.680 C 226.859 19.404,226.340 18.809,226.144 18.930 C 226.065 18.980,226.000 18.869,226.000 18.685 C 226.000 18.501,225.901 18.290,225.779 18.217 C 225.658 18.143,225.510 17.952,225.451 17.792 C 225.392 17.631,225.221 17.500,225.071 17.500 C 224.906 17.500,224.833 17.408,224.887 17.268 C 224.986 17.008,224.290 16.266,224.113 16.443 C 224.051 16.505,224.000 16.393,224.000 16.194 C 224.000 15.996,223.925 15.833,223.833 15.833 C 223.742 15.833,223.667 15.719,223.667 15.579 C 223.667 15.439,223.463 15.248,223.214 15.153 C 222.898 15.033,222.825 14.942,222.972 14.851 C 223.207 14.705,222.999 14.474,222.461 14.282 C 222.282 14.218,222.211 14.080,222.273 13.916 C 222.337 13.750,222.294 13.671,222.155 13.702 C 222.035 13.728,221.905 13.600,221.867 13.417 C 221.775 12.976,221.499 12.648,221.314 12.762 C 221.233 12.812,221.167 12.715,221.167 12.547 C 221.167 12.379,220.925 11.980,220.630 11.662 C 220.334 11.344,220.090 11.033,220.088 10.972 C 220.079 10.748,219.833 10.618,219.833 10.837 C 219.833 11.182,219.345 10.474,219.339 10.120 C 219.336 9.956,219.221 9.780,219.084 9.727 C 218.947 9.675,218.874 9.569,218.921 9.493 C 218.968 9.416,218.906 9.293,218.783 9.219 C 218.659 9.144,218.507 8.945,218.445 8.776 C 218.383 8.607,218.181 8.429,217.997 8.381 C 217.813 8.333,217.618 8.115,217.563 7.897 C 217.509 7.679,217.397 7.500,217.315 7.500 C 217.234 7.500,217.167 7.388,217.167 7.251 C 217.167 7.115,217.017 6.909,216.833 6.795 C 216.650 6.680,216.500 6.501,216.500 6.397 C 216.500 6.293,216.373 6.105,216.218 5.979 C 215.978 5.784,215.957 5.785,216.077 5.984 C 216.174 6.145,216.157 6.180,216.021 6.097 C 215.913 6.030,215.845 5.873,215.871 5.748 C 215.896 5.624,215.842 5.511,215.750 5.497 C 215.424 5.448,215.108 5.074,214.795 4.366 C 214.620 3.972,214.300 3.568,214.085 3.470 C 213.856 3.366,213.730 3.196,213.781 3.063 C 213.829 2.936,213.786 2.833,213.684 2.833 C 213.583 2.833,213.519 2.742,213.542 2.631 C 213.565 2.520,213.415 2.352,213.208 2.258 C 213.002 2.164,212.833 1.963,212.833 1.812 C 212.833 1.660,212.721 1.492,212.583 1.440 C 212.446 1.387,212.333 1.229,212.333 1.089 C 212.333 0.948,212.256 0.833,212.163 0.833 C 212.069 0.833,211.920 0.646,211.833 0.417 C 211.639 -0.095,209.396 -0.227,209.000 0.250 " stroke="none" fill="#9b9b9b" fill-rule="evenodd"></path>
<path d="M135.667 0.496 C 135.515 0.596,133.284 0.670,130.000 0.682 C 127.021 0.693,123.796 0.771,122.833 0.854 C 121.871 0.938,119.503 1.071,117.570 1.151 C 115.638 1.230,113.913 1.370,113.737 1.461 C 113.561 1.553,113.192 1.694,112.917 1.776 L 112.417 1.925 112.374 28.879 C 112.333 55.652,112.335 55.835,112.666 56.166 C 113.176 56.676,129.562 56.690,130.190 56.182 L 130.583 55.863 130.630 49.140 L 130.677 42.417 140.164 42.417 C 147.531 42.417,149.697 42.370,149.858 42.208 C 149.999 42.068,150.642 42.000,151.825 41.999 C 153.059 41.998,153.726 41.924,154.061 41.749 C 154.328 41.609,154.974 41.500,155.530 41.500 C 156.076 41.500,156.686 41.409,156.886 41.298 C 157.086 41.187,157.700 41.045,158.250 40.983 C 158.800 40.921,159.700 40.746,160.250 40.593 C 160.800 40.441,161.584 40.244,161.993 40.156 C 162.402 40.069,162.811 39.923,162.901 39.832 C 162.992 39.741,163.199 39.667,163.361 39.667 C 163.523 39.667,163.939 39.546,164.286 39.398 C 164.633 39.251,165.142 39.034,165.417 38.917 C 165.692 38.800,166.402 38.503,166.996 38.257 C 169.295 37.305,172.279 35.255,174.124 33.362 C 175.543 31.906,177.667 28.441,177.667 27.583 C 177.667 27.391,177.744 27.156,177.839 27.061 C 177.934 26.966,178.087 26.482,178.180 25.986 C 178.272 25.490,178.415 24.746,178.497 24.333 C 178.580 23.921,178.647 22.758,178.647 21.750 C 178.647 20.742,178.580 19.579,178.497 19.167 C 178.415 18.754,178.272 18.010,178.180 17.514 C 178.087 17.018,177.934 16.534,177.839 16.439 C 177.744 16.344,177.667 16.124,177.667 15.951 C 177.667 15.777,177.563 15.436,177.437 15.192 C 177.311 14.949,177.035 14.375,176.825 13.917 C 175.242 10.477,171.207 6.994,166.333 4.859 C 165.921 4.678,165.309 4.411,164.975 4.265 C 164.640 4.119,164.292 4.000,164.202 4.000 C 164.112 4.000,163.823 3.888,163.561 3.751 C 163.298 3.614,162.951 3.502,162.789 3.501 C 162.628 3.500,162.365 3.430,162.206 3.345 C 161.728 3.090,160.216 2.667,159.781 2.667 C 159.557 2.667,159.105 2.554,158.776 2.417 C 158.447 2.279,157.884 2.167,157.524 2.167 C 157.165 2.167,156.657 2.055,156.394 1.918 C 156.125 1.777,155.477 1.668,154.908 1.668 C 154.354 1.667,153.814 1.580,153.708 1.475 C 153.601 1.367,152.764 1.249,151.800 1.204 C 150.856 1.161,149.933 1.046,149.750 0.950 C 149.453 0.795,146.300 0.643,138.417 0.405 C 136.901 0.359,135.818 0.395,135.667 0.496 M285.000 0.494 C 284.862 0.586,283.662 0.669,282.333 0.678 C 281.004 0.687,279.467 0.766,278.917 0.854 C 278.367 0.941,277.311 1.075,276.571 1.151 C 275.831 1.228,275.081 1.365,274.904 1.456 C 274.728 1.547,274.141 1.665,273.601 1.718 C 273.061 1.771,272.540 1.893,272.443 1.990 C 272.346 2.087,272.038 2.167,271.758 2.168 C 271.479 2.168,271.035 2.281,270.773 2.418 C 270.510 2.555,270.133 2.667,269.935 2.667 C 269.621 2.667,267.526 3.392,266.583 3.828 C 266.400 3.912,265.875 4.145,265.417 4.346 C 264.958 4.546,264.546 4.756,264.500 4.813 C 264.454 4.870,264.004 5.138,263.500 5.408 C 261.104 6.691,256.833 10.848,256.833 11.895 C 256.833 11.940,256.608 12.463,256.333 13.057 C 256.058 13.651,255.833 14.285,255.833 14.466 C 255.833 14.647,255.721 15.010,255.584 15.273 C 255.438 15.553,255.335 16.199,255.334 16.842 C 255.334 17.491,255.249 18.018,255.125 18.142 C 254.999 18.268,254.917 18.802,254.917 19.500 C 254.917 20.198,254.999 20.732,255.125 20.858 C 255.249 20.982,255.334 21.509,255.334 22.158 C 255.335 22.801,255.438 23.447,255.584 23.727 C 255.721 23.990,255.833 24.313,255.833 24.446 C 255.833 24.820,256.981 27.085,257.387 27.512 C 257.587 27.721,257.862 28.055,258.000 28.253 C 259.119 29.861,265.023 33.500,266.514 33.500 C 266.679 33.500,266.856 33.569,266.909 33.654 C 266.961 33.738,267.247 33.858,267.544 33.919 C 268.034 34.021,268.629 34.191,270.333 34.715 C 270.654 34.814,271.254 34.950,271.667 35.017 C 272.079 35.084,272.717 35.218,273.083 35.315 C 273.450 35.413,274.027 35.494,274.365 35.496 C 274.704 35.498,275.027 35.575,275.083 35.667 C 275.140 35.758,275.622 35.833,276.156 35.833 C 276.689 35.833,277.444 35.946,277.833 36.083 C 278.244 36.228,279.121 36.333,279.919 36.333 C 280.816 36.333,281.462 36.420,281.773 36.582 C 282.122 36.764,282.812 36.832,284.342 36.832 C 285.792 36.833,286.497 36.897,286.641 37.042 C 286.788 37.189,287.695 37.263,289.716 37.293 C 291.293 37.317,292.846 37.414,293.167 37.509 C 293.487 37.604,294.612 37.747,295.667 37.827 C 301.210 38.249,302.419 39.457,298.667 40.828 C 296.557 41.599,285.673 42.351,284.000 41.842 C 283.679 41.744,282.404 41.590,281.167 41.500 C 277.726 41.248,276.295 41.079,275.781 40.863 C 275.523 40.755,275.026 40.667,274.676 40.667 C 274.327 40.667,273.771 40.554,273.442 40.417 C 273.113 40.279,272.560 40.164,272.214 40.161 C 271.867 40.158,271.438 40.046,271.260 39.911 C 271.082 39.777,270.754 39.667,270.532 39.667 C 270.173 39.667,269.023 39.347,268.083 38.987 C 267.900 38.916,267.300 38.734,266.750 38.581 C 266.200 38.429,265.551 38.198,265.308 38.069 C 265.064 37.939,264.752 37.833,264.613 37.833 C 264.474 37.833,264.148 37.726,263.889 37.594 C 262.042 36.656,260.445 36.105,259.831 36.192 C 259.363 36.259,258.020 38.834,254.412 46.583 C 254.070 47.317,253.650 48.212,253.479 48.573 C 252.854 49.887,253.235 50.428,255.417 51.324 C 256.150 51.625,256.975 51.969,257.250 52.087 C 257.525 52.206,258.087 52.430,258.500 52.585 C 258.912 52.740,259.365 52.925,259.505 52.996 C 259.646 53.067,260.001 53.177,260.295 53.242 C 260.589 53.306,260.872 53.428,260.925 53.513 C 260.977 53.597,261.221 53.669,261.468 53.672 C 261.715 53.675,262.062 53.787,262.240 53.922 C 262.418 54.057,262.793 54.169,263.074 54.172 C 263.354 54.175,263.729 54.287,263.907 54.422 C 264.085 54.557,264.394 54.667,264.595 54.667 C 264.795 54.667,265.229 54.779,265.558 54.917 C 265.887 55.054,266.368 55.167,266.628 55.167 C 266.888 55.167,267.174 55.241,267.265 55.332 C 267.356 55.423,267.802 55.541,268.257 55.595 C 268.711 55.649,269.233 55.763,269.417 55.847 C 269.813 56.031,271.435 56.308,273.167 56.488 C 273.854 56.560,274.679 56.704,274.999 56.809 C 275.319 56.914,276.205 57.000,276.968 57.000 C 277.765 57.000,278.687 57.109,279.139 57.257 C 280.181 57.598,294.514 57.554,294.858 57.208 C 294.992 57.075,295.567 57.000,296.455 57.000 C 297.313 57.000,298.073 56.904,298.442 56.750 C 298.771 56.612,299.440 56.500,299.927 56.500 C 300.415 56.500,300.855 56.434,300.905 56.353 C 300.955 56.272,301.408 56.154,301.912 56.091 C 302.416 56.028,302.871 55.907,302.924 55.822 C 302.977 55.736,303.184 55.667,303.385 55.667 C 303.806 55.668,305.199 55.242,305.889 54.900 C 306.148 54.772,306.437 54.667,306.530 54.667 C 306.714 54.667,307.632 54.291,308.389 53.906 C 308.648 53.775,308.919 53.667,308.992 53.667 C 309.185 53.667,311.877 52.132,312.152 51.865 C 312.281 51.740,312.656 51.467,312.985 51.259 C 314.555 50.267,318.128 45.982,318.172 45.037 C 318.175 44.971,318.323 44.617,318.500 44.250 C 318.677 43.883,318.825 43.423,318.828 43.227 C 318.831 43.032,318.945 42.657,319.082 42.394 C 319.499 41.596,319.437 36.036,318.996 34.647 C 317.962 31.383,316.209 29.086,313.307 27.189 C 311.596 26.070,308.501 24.635,306.917 24.225 C 306.733 24.178,306.433 24.071,306.250 23.989 C 305.897 23.830,304.855 23.561,303.750 23.344 C 303.383 23.271,302.872 23.127,302.614 23.023 C 302.356 22.919,301.858 22.833,301.508 22.833 C 301.158 22.833,300.657 22.721,300.394 22.584 C 300.131 22.447,299.494 22.335,298.977 22.334 C 298.461 22.334,297.823 22.221,297.561 22.084 C 297.261 21.928,296.615 21.835,295.825 21.834 C 295.122 21.834,294.485 21.751,294.381 21.647 C 294.276 21.543,293.369 21.428,292.306 21.385 C 291.267 21.343,290.228 21.237,289.996 21.150 C 289.592 20.997,286.502 20.789,280.667 20.520 C 279.154 20.450,277.706 20.305,277.447 20.197 C 277.189 20.089,276.657 20.000,276.265 20.000 C 275.642 20.000,275.072 19.823,274.178 19.353 C 273.059 18.765,274.252 17.468,276.257 17.093 C 276.620 17.026,276.992 16.911,277.083 16.839 C 277.175 16.766,277.872 16.673,278.631 16.631 C 279.391 16.589,280.099 16.467,280.206 16.361 C 280.489 16.078,291.353 16.086,291.636 16.369 C 291.759 16.492,292.507 16.596,293.544 16.634 C 294.482 16.668,295.571 16.802,295.964 16.931 C 296.357 17.061,297.073 17.167,297.556 17.167 C 298.038 17.167,298.505 17.235,298.592 17.319 C 298.743 17.464,300.162 17.758,301.583 17.939 C 301.950 17.986,302.486 18.131,302.775 18.262 C 303.064 18.393,303.449 18.500,303.631 18.500 C 303.813 18.500,304.177 18.612,304.439 18.749 C 304.702 18.886,305.039 18.998,305.189 18.999 C 305.339 19.000,305.677 19.112,305.939 19.249 C 306.202 19.386,306.570 19.498,306.758 19.499 C 306.946 19.500,307.171 19.565,307.258 19.643 C 308.169 20.468,309.996 20.356,310.250 19.460 C 310.367 19.046,310.578 18.553,311.233 17.164 C 311.472 16.659,311.667 16.195,311.667 16.134 C 311.667 16.073,311.898 15.512,312.180 14.887 C 312.463 14.261,312.800 13.514,312.930 13.225 C 313.060 12.936,313.167 12.580,313.167 12.433 C 313.167 12.287,313.242 12.167,313.333 12.167 C 313.425 12.167,313.500 12.087,313.500 11.989 C 313.500 11.892,313.678 11.423,313.895 10.948 C 314.112 10.472,314.456 9.671,314.660 9.167 C 314.864 8.662,315.136 8.051,315.265 7.808 C 315.614 7.150,315.558 6.444,315.125 6.049 C 314.730 5.689,313.276 5.000,312.909 5.000 C 312.791 5.000,312.481 4.895,312.222 4.766 C 311.223 4.272,310.474 4.000,310.111 4.000 C 309.903 4.000,309.662 3.929,309.575 3.843 C 309.488 3.756,309.117 3.613,308.750 3.524 C 308.383 3.435,307.541 3.205,306.877 3.014 C 306.214 2.823,305.464 2.664,305.210 2.661 C 304.957 2.658,304.563 2.548,304.333 2.417 C 304.104 2.286,303.607 2.176,303.229 2.173 C 302.850 2.169,302.271 2.054,301.942 1.917 C 301.613 1.779,300.982 1.667,300.539 1.667 C 300.096 1.667,299.654 1.587,299.557 1.491 C 299.461 1.394,298.677 1.271,297.816 1.218 C 296.955 1.165,296.100 1.044,295.917 0.950 C 295.734 0.855,294.047 0.712,292.167 0.633 C 290.288 0.553,287.962 0.452,287.000 0.408 C 285.965 0.360,285.148 0.396,285.000 0.494 M360.917 0.494 C 360.733 0.576,359.646 0.654,358.500 0.667 C 357.354 0.680,356.004 0.764,355.500 0.853 C 354.996 0.942,353.994 1.080,353.273 1.159 C 352.553 1.239,351.881 1.385,351.782 1.485 C 351.682 1.585,351.259 1.667,350.842 1.668 C 350.425 1.668,349.869 1.781,349.606 1.918 C 349.343 2.055,348.947 2.167,348.726 2.167 C 348.504 2.167,348.053 2.279,347.724 2.417 C 347.395 2.554,347.004 2.667,346.855 2.667 C 346.597 2.667,343.055 3.962,342.394 4.297 C 342.223 4.384,341.558 4.705,340.917 5.010 C 335.320 7.673,330.904 11.573,327.929 16.480 C 327.418 17.323,327.000 18.050,327.000 18.096 C 327.000 18.143,326.785 18.646,326.523 19.215 C 326.260 19.784,325.919 20.700,325.763 21.250 C 325.608 21.800,325.373 22.587,325.240 23.000 C 325.107 23.412,324.999 24.057,324.999 24.433 C 325.000 24.808,324.882 25.353,324.737 25.643 C 324.399 26.321,324.445 32.180,324.792 32.525 C 324.907 32.640,325.003 33.148,325.006 33.658 C 325.009 34.167,325.119 34.771,325.250 35.000 C 325.381 35.229,325.491 35.606,325.494 35.837 C 325.497 36.068,325.727 36.856,326.005 37.587 C 328.318 43.676,332.584 48.451,338.917 52.039 C 340.213 52.773,343.200 54.167,343.477 54.167 C 343.567 54.167,343.889 54.292,344.195 54.445 C 345.189 54.943,345.314 54.994,345.953 55.158 C 346.300 55.247,346.996 55.444,347.500 55.596 C 349.064 56.067,350.376 56.364,351.417 56.482 C 351.967 56.544,352.580 56.687,352.781 56.798 C 352.981 56.909,353.704 57.000,354.387 57.000 C 355.164 57.000,355.807 57.093,356.106 57.249 C 356.815 57.619,368.391 57.620,369.276 57.250 C 369.605 57.112,370.347 57.000,370.926 57.000 C 371.505 57.000,372.189 56.916,372.447 56.814 C 372.706 56.712,373.367 56.568,373.917 56.494 C 375.215 56.320,376.508 56.028,376.873 55.827 C 377.032 55.739,377.332 55.666,377.539 55.666 C 377.747 55.665,378.131 55.553,378.394 55.416 C 378.657 55.279,378.994 55.166,379.144 55.166 C 379.294 55.165,379.631 55.053,379.894 54.916 C 380.157 54.779,380.483 54.667,380.618 54.667 C 380.754 54.667,381.064 54.566,381.308 54.442 C 381.551 54.318,382.012 54.106,382.333 53.969 C 387.951 51.580,392.865 47.949,395.591 44.171 C 395.954 43.669,396.415 43.032,396.617 42.754 C 396.819 42.477,397.193 41.837,397.448 41.333 C 397.703 40.829,397.957 40.379,398.011 40.333 C 398.066 40.287,398.282 39.875,398.492 39.417 C 398.701 38.958,398.927 38.471,398.993 38.333 C 399.060 38.196,399.317 37.431,399.564 36.634 L 400.015 35.184 399.963 28.717 C 399.904 21.402,399.960 21.770,398.399 18.539 C 395.933 13.434,390.560 7.862,386.310 6.000 C 386.094 5.905,385.586 5.642,385.182 5.414 C 384.778 5.186,384.347 5.000,384.224 5.000 C 384.101 5.000,384.000 4.930,384.000 4.845 C 384.000 4.759,383.831 4.641,383.625 4.583 C 383.419 4.525,383.025 4.375,382.750 4.251 C 381.238 3.567,378.700 2.667,378.283 2.667 C 378.148 2.667,377.823 2.555,377.561 2.418 C 377.298 2.281,376.855 2.168,376.575 2.168 C 376.295 2.167,375.990 2.090,375.896 1.996 C 375.801 1.901,375.318 1.783,374.821 1.731 C 374.323 1.680,373.634 1.532,373.288 1.402 C 372.943 1.273,372.226 1.167,371.697 1.167 C 371.167 1.167,370.649 1.082,370.546 0.980 C 370.378 0.811,368.999 0.711,362.750 0.417 C 361.925 0.378,361.100 0.413,360.917 0.494 M84.628 2.281 C 83.993 2.447,83.984 2.890,84.034 29.702 C 84.081 54.514,84.098 55.836,84.381 56.119 C 84.877 56.615,101.502 56.664,101.996 56.171 C 102.463 55.703,102.538 2.895,102.071 2.429 C 101.820 2.177,85.551 2.039,84.628 2.281 M148.434 16.834 C 148.526 16.926,149.310 17.071,150.176 17.156 C 151.042 17.242,152.237 17.426,152.833 17.566 C 153.429 17.706,154.142 17.867,154.417 17.924 C 155.608 18.170,157.985 19.429,158.708 20.197 C 160.549 22.153,157.753 24.911,153.083 25.744 C 150.307 26.240,149.283 26.370,147.083 26.508 C 145.708 26.594,144.453 26.740,144.294 26.832 C 143.904 27.058,135.223 27.059,135.083 26.833 C 135.027 26.742,134.358 26.667,133.597 26.667 C 132.836 26.667,131.865 26.619,131.440 26.561 L 130.667 26.455 130.667 21.561 L 130.667 16.667 139.467 16.667 C 145.132 16.667,148.326 16.726,148.434 16.834 M368.417 17.049 C 370.532 17.529,371.073 17.676,372.000 18.020 C 372.504 18.207,373.067 18.404,373.250 18.457 C 373.433 18.511,373.846 18.717,374.167 18.915 C 374.488 19.113,374.868 19.318,375.013 19.371 C 375.779 19.652,377.396 20.878,378.500 22.015 C 383.303 26.960,382.352 33.734,376.271 37.897 C 374.861 38.862,372.134 40.167,371.526 40.167 C 371.363 40.167,371.085 40.277,370.907 40.411 C 370.729 40.546,370.370 40.658,370.109 40.661 C 369.847 40.664,369.397 40.775,369.109 40.907 C 367.620 41.588,357.779 41.554,356.114 40.862 C 355.856 40.754,355.406 40.664,355.114 40.661 C 354.822 40.658,354.438 40.546,354.260 40.411 C 354.082 40.277,353.800 40.167,353.633 40.167 C 353.465 40.167,353.199 40.096,353.039 40.010 C 352.880 39.924,352.150 39.576,351.417 39.236 C 348.185 37.739,346.068 35.873,344.768 33.375 C 343.701 31.324,343.551 27.258,344.472 25.336 C 345.764 22.639,348.874 19.644,351.126 18.930 C 351.332 18.864,351.500 18.749,351.500 18.674 C 351.500 18.599,351.706 18.500,351.958 18.453 C 352.210 18.407,352.829 18.219,353.333 18.036 C 354.883 17.472,355.876 17.207,356.872 17.089 C 357.398 17.027,357.873 16.905,357.927 16.817 C 358.098 16.540,367.048 16.737,368.417 17.049 " stroke="none" fill="#9b9b9b" fill-rule="evenodd"></path>
<path d="M214.880 4.595 C 215.187 5.190,215.667 5.649,215.667 5.349 C 215.667 5.243,215.554 5.113,215.417 5.060 C 215.279 5.008,215.167 4.869,215.167 4.753 C 215.167 4.636,215.043 4.438,214.891 4.312 C 214.635 4.100,214.634 4.120,214.880 4.595 M72.750 5.000 C 73.400 5.431,73.669 5.431,73.121 5.000 C 72.888 4.817,72.597 4.667,72.474 4.668 C 72.351 4.668,72.475 4.818,72.750 5.000 M0.005 10.032 C 0.002 10.187,0.080 10.363,0.178 10.424 C 0.472 10.605,0.513 10.414,0.254 10.071 C 0.040 9.789,0.010 9.784,0.005 10.032 M77.367 10.174 C 77.239 10.380,77.227 10.500,77.337 10.500 C 77.432 10.500,77.555 10.384,77.609 10.243 C 77.759 9.852,77.597 9.806,77.367 10.174 M219.339 10.271 C 219.349 10.567,219.833 11.086,219.833 10.802 C 219.833 10.658,219.721 10.447,219.583 10.333 C 219.446 10.219,219.336 10.191,219.339 10.271 M22.350 11.458 C 22.763 11.997,23.167 12.348,23.167 12.168 C 23.167 12.070,23.062 11.949,22.933 11.900 C 22.805 11.851,22.662 11.665,22.615 11.488 C 22.569 11.311,22.440 11.167,22.329 11.167 C 22.177 11.167,22.183 11.241,22.350 11.458 M50.617 17.266 C 50.453 17.487,50.394 17.667,50.486 17.667 C 50.655 17.667,51.076 17.018,50.972 16.919 C 50.941 16.890,50.782 17.046,50.617 17.266 M31.029 22.812 C 31.242 23.075,31.441 23.269,31.470 23.244 C 31.570 23.160,31.091 22.507,30.866 22.420 C 30.743 22.373,30.816 22.549,31.029 22.812 M190.513 24.191 C 190.506 24.341,190.387 24.508,190.250 24.560 C 190.112 24.613,190.000 24.736,190.000 24.835 C 190.000 24.933,190.158 24.866,190.351 24.686 C 190.545 24.506,190.663 24.259,190.615 24.137 C 190.553 23.983,190.522 23.999,190.513 24.191 M51.530 43.348 C 51.409 43.541,51.342 43.731,51.381 43.770 C 51.497 43.886,51.870 43.360,51.807 43.171 C 51.775 43.075,51.650 43.155,51.530 43.348 M30.208 48.883 C 30.369 49.013,30.500 49.196,30.500 49.290 C 30.500 49.383,30.628 49.562,30.785 49.688 C 31.025 49.881,31.018 49.828,30.742 49.347 C 30.561 49.033,30.302 48.747,30.165 48.711 C 29.983 48.663,29.994 48.709,30.208 48.883 " stroke="none" fill="#9b9b9b" fill-rule="evenodd"></path>
<path d="" stroke="none" fill="#9b9b9b" fill-rule="evenodd"></path>
</g>
</svg>